<svg xmlns="http://www.w3.org/2000/svg" xmlns:xlink="http://www.w3.org/1999/xlink" width="1366" zoomAndPan="magnify" viewBox="0 0 1024.5 330.75" height="441" preserveAspectRatio="xMidYMid meet" version="1.0"><defs><clipPath id="4e5cc0f3a7"><path d="M 0.136719 81.765625 L 1021 81.765625 L 1021 318 L 0.136719 318 Z M 0.136719 81.765625 " clip-rule="nonzero"/></clipPath><clipPath id="e9bd8abec8"><path d="M 1007.464844 81.765625 L -11.367188 81.765625 C -14.945312 81.765625 -18.375 83.1875 -20.90625 85.71875 C -23.433594 88.25 -24.855469 91.679688 -24.855469 95.257812 L -24.855469 293.058594 C 30.773438 311.355469 208.78125 341.601562 475.796875 293.058594 C 742.816406 249.144531 950.492188 274.761719 1020.957031 293.058594 L 1020.957031 95.257812 C 1020.957031 91.679688 1019.535156 88.25 1017.003906 85.71875 C 1014.476562 83.1875 1011.042969 81.765625 1007.464844 81.765625 Z M 1007.464844 81.765625 " clip-rule="nonzero"/></clipPath><clipPath id="1e05e47944"><path d="M 0.136719 0.765625 L 1021 0.765625 L 1021 236.519531 L 0.136719 236.519531 Z M 0.136719 0.765625 " clip-rule="nonzero"/></clipPath><clipPath id="597a5df517"><path d="M 1007.464844 0.765625 L -11.367188 0.765625 C -14.945312 0.765625 -18.375 2.1875 -20.90625 4.71875 C -23.433594 7.25 -24.855469 10.679688 -24.855469 14.257812 L -24.855469 212.058594 C 30.773438 230.355469 208.78125 260.601562 475.796875 212.058594 C 742.816406 168.144531 950.492188 193.761719 1020.957031 212.058594 L 1020.957031 14.257812 C 1020.957031 10.679688 1019.535156 7.25 1017.003906 4.71875 C 1014.476562 2.1875 1011.042969 0.765625 1007.464844 0.765625 Z M 1007.464844 0.765625 " clip-rule="nonzero"/></clipPath><clipPath id="3344ac5269"><rect x="0" width="1021" y="0" height="237"/></clipPath><clipPath id="d99cedb8d2"><path d="M 0.136719 15 L 1023.863281 15 L 1023.863281 219 L 0.136719 219 Z M 0.136719 15 " clip-rule="nonzero"/></clipPath><clipPath id="f35b81917a"><path d="M -8.460938 218.597656 L 1010.371094 218.597656 C 1013.949219 218.597656 1017.382812 217.175781 1019.910156 214.644531 C 1022.441406 212.117188 1023.863281 208.683594 1023.863281 205.105469 L 1023.863281 36.785156 C 968.234375 21.042969 790.222656 -8.375 523.207031 36.785156 C 256.191406 74.574219 48.511719 52.53125 -21.949219 36.785156 L -21.949219 205.105469 C -21.949219 208.683594 -20.527344 212.117188 -18 214.644531 C -15.46875 217.175781 -12.039062 218.597656 -8.460938 218.597656 Z M -8.460938 218.597656 " clip-rule="nonzero"/></clipPath><clipPath id="33de687bc1"><path d="M 0.136719 0.828125 L 1023.863281 0.828125 L 1023.863281 203.714844 L 0.136719 203.714844 Z M 0.136719 0.828125 " clip-rule="nonzero"/></clipPath><clipPath id="bce3af5456"><path d="M -8.460938 203.597656 L 1010.371094 203.597656 C 1013.949219 203.597656 1017.382812 202.175781 1019.910156 199.644531 C 1022.441406 197.117188 1023.863281 193.683594 1023.863281 190.105469 L 1023.863281 21.785156 C 968.234375 6.042969 790.222656 -23.375 523.207031 21.785156 C 256.191406 59.574219 48.511719 37.53125 -21.949219 21.785156 L -21.949219 190.105469 C -21.949219 193.683594 -20.527344 197.117188 -18 199.644531 C -15.46875 202.175781 -12.039062 203.597656 -8.460938 203.597656 Z M -8.460938 203.597656 " clip-rule="nonzero"/></clipPath><clipPath id="dfc8eed796"><rect x="0" width="1024" y="0" height="204"/></clipPath><clipPath id="d4ac5c1968"><path d="M 954 65.3125 L 1020.769531 65.3125 L 1020.769531 248 L 954 248 Z M 954 65.3125 " clip-rule="nonzero"/></clipPath><clipPath id="de4fde1791"><path d="M 894 72 L 996 72 L 996 251.921875 L 894 251.921875 Z M 894 72 " clip-rule="nonzero"/></clipPath><clipPath id="93e8edb77e"><path d="M 850.648438 163 L 897 163 L 897 200 L 850.648438 200 Z M 850.648438 163 " clip-rule="nonzero"/></clipPath><clipPath id="782b6b32ee"><path d="M 501 0 L 523.542969 0 L 523.542969 81.6875 L 501 81.6875 Z M 501 0 " clip-rule="nonzero"/></clipPath><clipPath id="dcb838612d"><path d="M 501 248.277344 L 523.542969 248.277344 L 523.542969 329.964844 L 501 329.964844 Z M 501 248.277344 " clip-rule="nonzero"/></clipPath></defs><g clip-path="url(#4e5cc0f3a7)"><g clip-path="url(#e9bd8abec8)"><g transform="matrix(1, 0, 0, 1, 0, 81)"><g clip-path="url(#3344ac5269)"><g clip-path="url(#1e05e47944)"><g clip-path="url(#597a5df517)"><path fill="#e89ca3" d="M -24.855469 0.765625 L 1021.257812 0.765625 L 1021.257812 236.304688 L -24.855469 236.304688 Z M -24.855469 0.765625 " fill-opacity="1" fill-rule="nonzero"/></g></g></g></g></g></g><g clip-path="url(#d99cedb8d2)"><g clip-path="url(#f35b81917a)"><g transform="matrix(1, 0, 0, 1, 0, 15)"><g clip-path="url(#dfc8eed796)"><g clip-path="url(#33de687bc1)"><g clip-path="url(#bce3af5456)"><path fill="#e89ca3" d="M 1023.863281 203.597656 L -21.964844 203.597656 L -21.964844 0.921875 L 1023.863281 0.921875 Z M 1023.863281 203.597656 " fill-opacity="1" fill-rule="nonzero"/></g></g></g></g></g></g><g clip-path="url(#d4ac5c1968)"><path fill="#fff6f0" d="M 954.0625 78.851562 C 956.070312 76.628906 958.171875 74.476562 960.449219 72.496094 C 961.585938 71.503906 962.769531 70.5625 964.011719 69.6875 C 965.253906 68.8125 966.554688 68.007812 967.929688 67.320312 C 969.308594 66.636719 970.757812 66.074219 972.289062 65.71875 C 973.050781 65.542969 973.832031 65.421875 974.621094 65.367188 C 975.410156 65.3125 976.210938 65.328125 977.003906 65.421875 C 977.800781 65.515625 978.585938 65.6875 979.347656 65.933594 C 980.109375 66.179688 980.847656 66.5 981.546875 66.878906 C 982.246094 67.257812 982.910156 67.699219 983.53125 68.183594 C 983.84375 68.425781 984.148438 68.679688 984.441406 68.941406 C 984.511719 69.003906 984.585938 69.070312 984.65625 69.140625 L 984.765625 69.238281 C 984.800781 69.269531 984.839844 69.308594 984.878906 69.34375 L 984.992188 69.453125 C 985.027344 69.488281 985.066406 69.527344 985.097656 69.5625 L 985.296875 69.785156 L 985.5 70.003906 L 985.6875 70.222656 C 985.8125 70.367188 985.941406 70.511719 986.0625 70.660156 C 986.183594 70.808594 986.308594 70.953125 986.429688 71.101562 L 986.789062 71.550781 C 987.257812 72.152344 987.714844 72.761719 988.15625 73.382812 C 988.59375 74.007812 989.015625 74.636719 989.429688 75.277344 L 989.730469 75.757812 L 989.882812 75.996094 L 990.03125 76.238281 L 990.328125 76.726562 L 990.617188 77.214844 C 991.386719 78.519531 992.105469 79.851562 992.789062 81.199219 C 993.472656 82.550781 994.109375 83.917969 994.714844 85.300781 C 997.132812 90.835938 998.960938 96.601562 1000.324219 102.457031 L 1000.574219 103.554688 L 1000.816406 104.65625 L 1001.042969 105.761719 C 1001.117188 106.128906 1001.1875 106.496094 1001.257812 106.867188 C 1001.542969 108.339844 1001.800781 109.820312 1002.03125 111.304688 C 1002.265625 112.785156 1002.46875 114.273438 1002.652344 115.761719 C 1002.835938 117.25 1002.996094 118.738281 1003.132812 120.230469 C 1003.269531 121.722656 1003.394531 123.21875 1003.488281 124.710938 C 1003.582031 126.207031 1003.660156 127.703125 1003.714844 129.199219 C 1003.769531 130.695312 1003.804688 132.191406 1003.820312 133.6875 L 1003.828125 134.8125 L 1003.832031 135.371094 L 1003.828125 135.933594 C 1003.824219 136.308594 1003.828125 136.679688 1003.824219 137.058594 L 1003.808594 138.1875 C 1003.804688 138.28125 1003.808594 138.375 1003.800781 138.46875 L 1003.777344 138.753906 C 1003.761719 138.949219 1003.746094 139.128906 1003.726562 139.320312 C 1003.695312 139.691406 1003.65625 140.066406 1003.617188 140.441406 C 1003.535156 141.1875 1003.4375 141.929688 1003.328125 142.675781 C 1003.105469 144.160156 1002.820312 145.636719 1002.476562 147.101562 C 1002.132812 148.566406 1001.71875 150.015625 1001.230469 151.4375 C 1000.742188 152.863281 1000.183594 154.265625 999.53125 155.628906 C 998.878906 156.992188 998.144531 158.320312 997.296875 159.578125 C 996.449219 160.835938 995.496094 162.03125 994.410156 163.109375 C 993.324219 164.183594 992.105469 165.140625 990.746094 165.886719 C 990.066406 166.257812 989.355469 166.574219 988.613281 166.820312 C 987.875 167.066406 987.109375 167.242188 986.332031 167.335938 C 985.554688 167.433594 984.765625 167.449219 983.984375 167.382812 C 983.203125 167.320312 982.429688 167.175781 981.679688 166.964844 C 980.925781 166.753906 980.195312 166.476562 979.492188 166.144531 C 979.320312 166.066406 979.132812 165.972656 978.953125 165.875 C 978.773438 165.773438 978.597656 165.664062 978.425781 165.542969 C 978.082031 165.300781 977.757812 165.015625 977.480469 164.679688 C 977.199219 164.34375 976.964844 163.953125 976.8125 163.527344 C 976.65625 163.101562 976.582031 162.640625 976.59375 162.191406 C 976.605469 161.738281 976.695312 161.296875 976.84375 160.882812 C 976.992188 160.472656 977.199219 160.089844 977.441406 159.738281 C 977.925781 159.039062 978.542969 158.464844 979.222656 158.003906 C 979.898438 157.542969 980.636719 157.191406 981.402344 156.933594 C 981.785156 156.804688 982.171875 156.699219 982.566406 156.613281 C 982.957031 156.53125 983.351562 156.46875 983.75 156.425781 C 984.542969 156.339844 985.34375 156.335938 986.132812 156.398438 C 987.710938 156.527344 989.25 156.921875 990.707031 157.488281 C 992.164062 158.054688 993.539062 158.796875 994.828125 159.644531 C 995.476562 160.070312 996.097656 160.523438 996.707031 160.996094 C 997.308594 161.472656 997.898438 161.96875 998.46875 162.484375 C 998.75 162.742188 999.03125 163 999.304688 163.269531 L 999.511719 163.46875 L 999.710938 163.664062 C 999.839844 163.796875 999.976562 163.921875 1000.109375 164.050781 L 1000.308594 164.238281 L 1000.515625 164.4375 C 1000.652344 164.566406 1000.785156 164.699219 1000.921875 164.832031 C 1001.054688 164.960938 1001.191406 165.09375 1001.324219 165.226562 C 1001.460938 165.359375 1001.59375 165.492188 1001.726562 165.628906 C 1002.792969 166.699219 1003.828125 167.804688 1004.828125 168.941406 C 1006.832031 171.210938 1008.695312 173.609375 1010.390625 176.125 C 1013.785156 181.15625 1016.492188 186.679688 1018.285156 192.496094 C 1019.183594 195.40625 1019.859375 198.386719 1020.296875 201.398438 C 1020.734375 204.410156 1020.941406 207.457031 1020.902344 210.496094 C 1020.828125 216.578125 1019.820312 222.65625 1017.800781 228.394531 C 1017.296875 229.828125 1016.722656 231.238281 1016.082031 232.617188 C 1015.765625 233.308594 1015.425781 233.988281 1015.074219 234.664062 C 1014.71875 235.335938 1014.34375 236 1013.949219 236.652344 C 1013.167969 237.957031 1012.304688 239.21875 1011.351562 240.414062 C 1010.878906 241.007812 1010.378906 241.589844 1009.859375 242.148438 C 1009.335938 242.707031 1008.789062 243.242188 1008.214844 243.753906 C 1007.066406 244.769531 1005.808594 245.675781 1004.425781 246.375 C 1003.734375 246.71875 1003.011719 247.011719 1002.261719 247.226562 C 1001.890625 247.332031 1001.511719 247.421875 1001.125 247.488281 C 1000.933594 247.519531 1000.742188 247.546875 1000.546875 247.566406 C 1000.449219 247.578125 1000.351562 247.585938 1000.253906 247.59375 L 999.972656 247.613281 C 998.457031 247.707031 996.9375 247.65625 995.441406 247.476562 C 994.691406 247.386719 993.949219 247.265625 993.210938 247.113281 C 992.476562 246.960938 991.746094 246.78125 991.027344 246.570312 L 991.078125 246.363281 C 991.804688 246.519531 992.539062 246.648438 993.273438 246.75 C 994.007812 246.851562 994.746094 246.925781 995.484375 246.96875 C 996.964844 247.058594 998.441406 247.023438 999.902344 246.851562 L 1000.175781 246.820312 C 1000.265625 246.808594 1000.355469 246.796875 1000.441406 246.78125 C 1000.617188 246.753906 1000.792969 246.71875 1000.96875 246.683594 C 1001.316406 246.605469 1001.664062 246.507812 1002 246.390625 C 1002.679688 246.160156 1003.335938 245.855469 1003.964844 245.503906 C 1005.222656 244.800781 1006.367188 243.890625 1007.414062 242.886719 C 1007.9375 242.382812 1008.4375 241.851562 1008.914062 241.300781 C 1009.390625 240.746094 1009.84375 240.175781 1010.277344 239.585938 C 1010.710938 239 1011.121094 238.394531 1011.515625 237.777344 C 1011.910156 237.160156 1012.28125 236.53125 1012.640625 235.890625 C 1012.996094 235.25 1013.332031 234.601562 1013.652344 233.941406 C 1013.976562 233.285156 1014.28125 232.617188 1014.566406 231.941406 C 1015.144531 230.59375 1015.652344 229.214844 1016.105469 227.820312 C 1016.558594 226.425781 1016.945312 225.007812 1017.28125 223.578125 C 1017.613281 222.152344 1017.890625 220.707031 1018.105469 219.257812 C 1018.542969 216.355469 1018.75 213.421875 1018.742188 210.488281 C 1018.738281 209.023438 1018.679688 207.558594 1018.566406 206.097656 C 1018.453125 204.636719 1018.285156 203.179688 1018.0625 201.730469 C 1017.621094 198.835938 1016.96875 195.972656 1016.105469 193.167969 C 1015.246094 190.367188 1014.1875 187.628906 1012.933594 184.972656 C 1012.621094 184.3125 1012.296875 183.652344 1011.960938 183 C 1011.625 182.347656 1011.277344 181.703125 1010.917969 181.0625 C 1010.203125 179.78125 1009.4375 178.523438 1008.636719 177.292969 C 1007.027344 174.832031 1005.253906 172.476562 1003.335938 170.238281 C 1002.378906 169.117188 1001.386719 168.027344 1000.363281 166.964844 C 1000.234375 166.832031 1000.105469 166.699219 999.976562 166.566406 C 999.847656 166.433594 999.71875 166.304688 999.589844 166.171875 C 999.460938 166.042969 999.328125 165.910156 999.199219 165.78125 L 999.003906 165.585938 L 998.800781 165.386719 C 998.664062 165.253906 998.527344 165.121094 998.398438 164.988281 L 998.203125 164.789062 L 998.007812 164.597656 C 997.75 164.339844 997.488281 164.089844 997.222656 163.839844 C 996.691406 163.34375 996.144531 162.867188 995.582031 162.410156 C 995.015625 161.957031 994.441406 161.523438 993.84375 161.117188 C 992.652344 160.304688 991.394531 159.597656 990.078125 159.054688 C 988.761719 158.511719 987.386719 158.128906 985.988281 157.988281 C 985.289062 157.914062 984.589844 157.902344 983.894531 157.960938 C 983.550781 157.988281 983.203125 158.03125 982.867188 158.097656 C 982.527344 158.160156 982.191406 158.242188 981.863281 158.347656 C 981.207031 158.550781 980.578125 158.832031 980.011719 159.195312 C 979.445312 159.5625 978.941406 160.011719 978.5625 160.53125 C 978.1875 161.050781 977.9375 161.644531 977.910156 162.234375 C 977.894531 162.53125 977.933594 162.824219 978.027344 163.101562 C 978.117188 163.378906 978.265625 163.644531 978.457031 163.890625 C 978.644531 164.132812 978.882812 164.351562 979.144531 164.546875 C 979.277344 164.644531 979.414062 164.738281 979.558594 164.824219 C 979.703125 164.910156 979.847656 164.984375 980.015625 165.066406 C 980.65625 165.386719 981.320312 165.652344 982 165.859375 C 983.363281 166.273438 984.800781 166.429688 986.214844 166.28125 C 986.921875 166.207031 987.621094 166.0625 988.300781 165.847656 C 988.984375 165.636719 989.648438 165.355469 990.285156 165.023438 C 991.5625 164.355469 992.730469 163.472656 993.78125 162.460938 C 994.835938 161.453125 995.769531 160.316406 996.609375 159.109375 C 997.445312 157.898438 998.183594 156.617188 998.835938 155.292969 C 1000.136719 152.640625 1001.101562 149.820312 1001.808594 146.941406 C 1001.898438 146.582031 1001.980469 146.21875 1002.0625 145.859375 C 1002.140625 145.496094 1002.21875 145.132812 1002.289062 144.769531 C 1002.433594 144.039062 1002.558594 143.308594 1002.671875 142.574219 C 1002.789062 141.84375 1002.886719 141.105469 1002.96875 140.367188 C 1003.011719 140 1003.050781 139.628906 1003.085938 139.261719 C 1003.101562 139.078125 1003.121094 138.886719 1003.136719 138.707031 L 1003.160156 138.4375 C 1003.164062 138.347656 1003.164062 138.253906 1003.167969 138.160156 L 1003.183594 137.046875 C 1003.191406 136.679688 1003.191406 136.304688 1003.191406 135.933594 L 1003.195312 135.375 L 1003.183594 133.699219 C 1003.160156 132.207031 1003.113281 130.71875 1003.039062 129.230469 C 1002.964844 127.742188 1002.859375 126.253906 1002.734375 124.773438 C 1002.601562 123.289062 1002.445312 121.808594 1002.261719 120.328125 C 1001.894531 117.375 1001.414062 114.433594 1000.835938 111.519531 C 1000.257812 108.601562 999.578125 105.707031 998.800781 102.839844 C 998.707031 102.480469 998.605469 102.125 998.507812 101.769531 C 998.410156 101.410156 998.304688 101.054688 998.203125 100.699219 C 998.101562 100.339844 997.996094 99.984375 997.890625 99.628906 L 997.730469 99.097656 L 997.566406 98.566406 C 997.132812 97.148438 996.671875 95.738281 996.1875 94.339844 C 995.222656 91.539062 994.152344 88.777344 992.96875 86.070312 C 992.378906 84.714844 991.753906 83.375 991.089844 82.054688 C 990.429688 80.738281 989.738281 79.433594 989 78.164062 L 988.722656 77.6875 L 988.4375 77.214844 L 988.292969 76.976562 L 987.859375 76.273438 C 987.464844 75.65625 987.066406 75.039062 986.648438 74.4375 C 986.234375 73.835938 985.804688 73.242188 985.359375 72.664062 L 985.023438 72.234375 C 984.910156 72.089844 984.792969 71.949219 984.679688 71.808594 C 984.566406 71.667969 984.449219 71.527344 984.332031 71.390625 L 984.15625 71.183594 L 983.984375 70.984375 L 983.8125 70.789062 C 983.785156 70.753906 983.753906 70.726562 983.726562 70.695312 L 983.636719 70.609375 C 983.605469 70.582031 983.582031 70.554688 983.546875 70.523438 L 983.449219 70.429688 C 983.386719 70.367188 983.320312 70.308594 983.257812 70.25 C 982.996094 70.007812 982.730469 69.777344 982.453125 69.558594 C 981.902344 69.117188 981.324219 68.722656 980.71875 68.378906 C 979.507812 67.6875 978.179688 67.226562 976.800781 67.039062 C 976.113281 66.941406 975.414062 66.914062 974.714844 66.945312 C 974.011719 66.972656 973.3125 67.066406 972.617188 67.210938 C 971.222656 67.496094 969.859375 67.980469 968.542969 68.589844 C 967.222656 69.195312 965.953125 69.929688 964.726562 70.730469 C 963.496094 71.535156 962.308594 72.414062 961.15625 73.339844 C 958.84375 75.1875 956.671875 77.222656 954.546875 79.3125 Z M 954.0625 78.851562 " fill-opacity="1" fill-rule="nonzero"/></g><g clip-path="url(#de4fde1791)"><path fill="#fff6f0" d="M 897.808594 198.15625 C 897.652344 198.261719 897.492188 198.371094 897.347656 198.488281 C 897.269531 198.546875 897.199219 198.609375 897.128906 198.667969 C 897.058594 198.730469 896.988281 198.792969 896.921875 198.859375 C 896.789062 198.988281 896.667969 199.128906 896.554688 199.273438 C 896.441406 199.417969 896.339844 199.570312 896.253906 199.730469 C 895.898438 200.359375 895.785156 201.097656 895.878906 201.832031 C 895.972656 202.5625 896.246094 203.285156 896.59375 203.96875 C 896.773438 204.308594 896.96875 204.644531 897.179688 204.96875 C 897.390625 205.296875 897.617188 205.613281 897.855469 205.925781 C 898.328125 206.550781 898.84375 207.148438 899.378906 207.726562 C 899.917969 208.300781 900.480469 208.859375 901.058594 209.402344 C 902.214844 210.484375 903.433594 211.507812 904.683594 212.492188 C 905.933594 213.476562 907.214844 214.417969 908.523438 215.328125 C 909.832031 216.238281 911.160156 217.117188 912.511719 217.949219 C 912.683594 218.054688 912.851562 218.15625 913.019531 218.257812 L 913.140625 218.328125 L 913.167969 218.34375 L 913.199219 218.363281 L 913.265625 218.398438 L 913.523438 218.535156 C 913.875 218.722656 914.234375 218.914062 914.585938 219.105469 C 915.292969 219.492188 915.996094 219.886719 916.691406 220.292969 C 918.089844 221.097656 919.464844 221.949219 920.808594 222.851562 C 923.492188 224.652344 926.054688 226.671875 928.371094 228.964844 C 930.683594 231.257812 932.746094 233.824219 934.40625 236.652344 C 935.234375 238.0625 935.964844 239.535156 936.585938 241.050781 C 936.742188 241.429688 936.890625 241.8125 937.03125 242.199219 L 937.136719 242.488281 L 937.1875 242.632812 L 937.214844 242.703125 L 937.242188 242.785156 L 937.292969 242.945312 C 937.308594 243 937.324219 243.054688 937.339844 243.109375 C 937.375 243.21875 937.398438 243.328125 937.425781 243.441406 C 937.472656 243.667969 937.515625 243.894531 937.535156 244.132812 C 937.550781 244.246094 937.550781 244.367188 937.558594 244.488281 C 937.558594 244.609375 937.558594 244.726562 937.550781 244.847656 C 937.527344 245.332031 937.417969 245.828125 937.21875 246.289062 C 937.019531 246.75 936.726562 247.167969 936.382812 247.519531 C 936.039062 247.871094 935.648438 248.152344 935.238281 248.378906 C 934.824219 248.605469 934.394531 248.773438 933.957031 248.898438 C 933.519531 249.019531 933.074219 249.101562 932.632812 249.144531 C 931.742188 249.226562 930.851562 249.171875 929.988281 248.984375 C 929.125 248.796875 928.28125 248.476562 927.507812 248.015625 L 927.476562 247.996094 L 927.445312 247.972656 C 926.765625 247.476562 926.175781 246.902344 925.644531 246.289062 C 925.117188 245.675781 924.648438 245.027344 924.222656 244.359375 C 923.375 243.023438 922.683594 241.613281 922.09375 240.171875 C 921.507812 238.730469 921.015625 237.253906 920.621094 235.75 C 920.425781 234.996094 920.253906 234.234375 920.109375 233.464844 C 920.039062 233.078125 919.976562 232.691406 919.921875 232.300781 C 919.894531 232.105469 919.871094 231.90625 919.851562 231.714844 L 919.785156 231.152344 C 919.613281 229.621094 919.511719 228.097656 919.371094 226.601562 C 919.230469 225.113281 919.050781 223.648438 918.707031 222.238281 C 918.539062 221.535156 918.324219 220.84375 918.074219 220.171875 C 918.011719 220 917.945312 219.835938 917.878906 219.667969 C 917.808594 219.503906 917.742188 219.335938 917.667969 219.171875 C 917.589844 219.007812 917.519531 218.84375 917.4375 218.683594 L 917.320312 218.4375 L 917.199219 218.207031 C 917.121094 218.046875 917.03125 217.90625 916.945312 217.757812 C 916.902344 217.6875 916.851562 217.613281 916.804688 217.539062 C 916.753906 217.464844 916.710938 217.386719 916.660156 217.3125 C 916.558594 217.167969 916.460938 217.019531 916.351562 216.875 L 916.195312 216.65625 L 916.03125 216.445312 C 915.589844 215.871094 915.109375 215.324219 914.605469 214.789062 C 913.597656 213.714844 912.496094 212.699219 911.386719 211.664062 C 910.273438 210.628906 909.144531 209.582031 908.085938 208.425781 C 907.953125 208.28125 907.820312 208.132812 907.691406 207.984375 C 907.5625 207.832031 907.429688 207.6875 907.304688 207.53125 L 907.117188 207.300781 L 906.9375 207.070312 L 906.582031 206.613281 C 906.460938 206.464844 906.347656 206.308594 906.230469 206.152344 L 905.882812 205.6875 C 905.765625 205.535156 905.65625 205.375 905.542969 205.21875 L 905.207031 204.746094 C 904.320312 203.480469 903.492188 202.171875 902.726562 200.832031 C 901.191406 198.152344 899.894531 195.339844 898.820312 192.453125 C 897.746094 189.5625 896.894531 186.597656 896.242188 183.59375 C 895.585938 180.59375 895.121094 177.554688 894.816406 174.503906 C 894.515625 171.453125 894.371094 168.390625 894.363281 165.328125 C 894.351562 159.210938 894.863281 153.105469 895.753906 147.074219 C 896.199219 144.054688 896.742188 141.054688 897.371094 138.070312 C 897.996094 135.089844 898.710938 132.125 899.496094 129.183594 C 901.074219 123.300781 902.949219 117.5 905.113281 111.8125 C 905.652344 110.390625 906.214844 108.976562 906.792969 107.570312 C 907.371094 106.164062 907.972656 104.761719 908.589844 103.375 C 909.832031 100.59375 911.152344 97.847656 912.59375 95.164062 C 913.316406 93.824219 914.066406 92.496094 914.863281 91.195312 C 915.265625 90.542969 915.675781 89.898438 916.101562 89.265625 C 916.53125 88.628906 916.972656 88.003906 917.445312 87.394531 C 917.679688 87.089844 917.925781 86.789062 918.164062 86.5 C 918.410156 86.207031 918.652344 85.914062 918.898438 85.625 C 919.390625 85.042969 919.886719 84.464844 920.390625 83.894531 C 921.398438 82.753906 922.4375 81.636719 923.519531 80.5625 C 924.601562 79.484375 925.726562 78.449219 926.90625 77.476562 C 928.085938 76.503906 929.328125 75.597656 930.640625 74.800781 C 931.953125 74.003906 933.34375 73.316406 934.8125 72.828125 C 936.277344 72.339844 937.828125 72.058594 939.386719 72.085938 C 940.167969 72.097656 940.945312 72.183594 941.707031 72.351562 C 942.46875 72.515625 943.210938 72.753906 943.925781 73.058594 C 944.640625 73.367188 945.328125 73.734375 945.980469 74.152344 C 946.304688 74.363281 946.625 74.582031 946.933594 74.8125 C 947.089844 74.929688 947.242188 75.046875 947.390625 75.167969 C 947.46875 75.226562 947.542969 75.289062 947.621094 75.355469 C 947.695312 75.417969 947.773438 75.476562 947.847656 75.550781 C 948.132812 75.824219 948.394531 76.105469 948.652344 76.394531 C 948.90625 76.6875 949.152344 76.984375 949.390625 77.285156 C 949.863281 77.890625 950.308594 78.515625 950.734375 79.148438 C 951.589844 80.414062 952.378906 81.722656 953.128906 83.046875 C 954.625 85.699219 955.984375 88.425781 957.257812 91.1875 C 958.535156 93.945312 959.722656 96.746094 960.851562 99.570312 C 963.09375 105.21875 965.082031 110.972656 966.773438 116.820312 C 967.617188 119.742188 968.386719 122.691406 969.058594 125.664062 C 969.726562 128.636719 970.300781 131.632812 970.734375 134.660156 C 971.164062 137.683594 971.460938 140.734375 971.527344 143.808594 C 971.558594 145.34375 971.53125 146.882812 971.421875 148.425781 C 971.3125 149.96875 971.117188 151.507812 970.800781 153.039062 C 970.484375 154.566406 970.039062 156.082031 969.40625 157.542969 C 969.085938 158.269531 968.722656 158.984375 968.296875 159.667969 C 968.089844 160.007812 967.851562 160.351562 967.628906 160.660156 C 967.402344 160.976562 967.175781 161.285156 966.945312 161.589844 C 966.027344 162.816406 965.089844 164.015625 964.140625 165.207031 C 963.191406 166.398438 962.230469 167.578125 961.261719 168.75 C 957.371094 173.433594 953.339844 178 949.101562 182.386719 C 946.980469 184.578125 944.804688 186.722656 942.539062 188.78125 C 941.40625 189.8125 940.253906 190.820312 939.0625 191.796875 C 937.875 192.769531 936.652344 193.714844 935.375 194.597656 C 934.09375 195.480469 932.765625 196.3125 931.324219 197.007812 C 930.601562 197.351562 929.851562 197.664062 929.054688 197.902344 C 928.65625 198.019531 928.242188 198.117188 927.816406 198.1875 C 927.390625 198.257812 926.945312 198.300781 926.492188 198.289062 C 926.035156 198.28125 925.5625 198.222656 925.097656 198.09375 C 924.632812 197.964844 924.171875 197.757812 923.761719 197.484375 C 923.558594 197.347656 923.363281 197.195312 923.183594 197.03125 L 923.050781 196.90625 C 923.007812 196.863281 922.964844 196.820312 922.925781 196.777344 C 922.886719 196.734375 922.84375 196.6875 922.804688 196.644531 L 922.695312 196.519531 C 922.40625 196.179688 922.144531 195.796875 921.925781 195.378906 C 921.820312 195.167969 921.71875 194.949219 921.640625 194.71875 C 921.5625 194.492188 921.496094 194.257812 921.449219 194.015625 C 921.402344 193.773438 921.375 193.53125 921.363281 193.289062 C 921.355469 193.042969 921.363281 192.800781 921.386719 192.5625 C 921.414062 192.324219 921.453125 192.089844 921.507812 191.863281 C 921.566406 191.636719 921.628906 191.414062 921.707031 191.199219 C 921.863281 190.773438 922.058594 190.371094 922.273438 189.996094 C 922.710938 189.246094 923.230469 188.59375 923.785156 187.992188 C 924.335938 187.390625 924.925781 186.84375 925.535156 186.328125 C 926.75 185.304688 928.035156 184.410156 929.351562 183.585938 C 930.667969 182.757812 932.019531 182 933.386719 181.292969 C 934.757812 180.585938 936.148438 179.921875 937.550781 179.300781 C 938.957031 178.675781 940.378906 178.089844 941.808594 177.539062 C 943.242188 176.988281 944.6875 176.472656 946.152344 175.996094 C 947.613281 175.519531 949.089844 175.078125 950.589844 174.699219 C 952.09375 174.320312 953.605469 174.003906 955.128906 173.742188 C 956.652344 173.476562 958.183594 173.273438 959.726562 173.128906 C 961.269531 172.988281 962.820312 172.914062 964.375 172.917969 C 965.933594 172.921875 967.496094 173.007812 969.050781 173.203125 C 970.609375 173.394531 972.160156 173.695312 973.683594 174.140625 C 974.445312 174.363281 975.199219 174.625 975.941406 174.925781 C 976.679688 175.230469 977.40625 175.574219 978.113281 175.964844 C 978.816406 176.355469 979.5 176.796875 980.148438 177.277344 L 980.390625 177.464844 C 980.472656 177.527344 980.550781 177.589844 980.628906 177.648438 C 980.78125 177.773438 980.933594 177.898438 981.085938 178.023438 C 981.386719 178.273438 981.683594 178.53125 981.976562 178.789062 C 984.320312 180.886719 986.34375 183.320312 988.019531 185.957031 C 989.695312 188.597656 991.023438 191.433594 992.054688 194.359375 C 993.085938 197.289062 993.816406 200.308594 994.304688 203.359375 C 994.792969 206.40625 995.03125 209.488281 995.058594 212.566406 C 995.082031 215.644531 994.902344 218.722656 994.511719 221.773438 C 994.121094 224.820312 993.535156 227.847656 992.726562 230.816406 C 992.324219 232.300781 991.863281 233.769531 991.34375 235.21875 C 990.820312 236.667969 990.234375 238.097656 989.578125 239.496094 C 988.917969 240.894531 988.183594 242.261719 987.355469 243.574219 C 986.523438 244.886719 985.59375 246.148438 984.535156 247.308594 C 984.003906 247.886719 983.4375 248.4375 982.832031 248.949219 C 982.222656 249.460938 981.574219 249.933594 980.882812 250.339844 C 980.191406 250.746094 979.449219 251.089844 978.671875 251.335938 C 978.285156 251.460938 977.886719 251.5625 977.484375 251.632812 C 977.433594 251.644531 977.382812 251.652344 977.335938 251.65625 L 976.902344 251.726562 C 976.710938 251.761719 976.519531 251.78125 976.324219 251.808594 C 974.78125 252.007812 973.21875 252.066406 971.667969 251.988281 C 970.117188 251.914062 968.578125 251.707031 967.066406 251.394531 C 965.550781 251.085938 964.0625 250.667969 962.605469 250.171875 C 961.152344 249.671875 959.726562 249.09375 958.332031 248.449219 C 955.550781 247.160156 952.894531 245.625 950.347656 243.941406 C 947.800781 242.253906 945.367188 240.414062 943.015625 238.476562 C 938.320312 234.59375 933.96875 230.324219 929.847656 225.863281 C 927.785156 223.628906 925.785156 221.34375 923.828125 219.023438 C 922.847656 217.863281 921.878906 216.695312 920.914062 215.527344 L 919.464844 213.773438 C 919.222656 213.484375 918.976562 213.195312 918.730469 212.910156 C 918.480469 212.625 918.234375 212.335938 917.964844 212.082031 L 918.109375 211.925781 C 918.394531 212.1875 918.648438 212.46875 918.90625 212.75 C 919.164062 213.035156 919.414062 213.320312 919.664062 213.605469 C 920.160156 214.175781 920.652344 214.753906 921.148438 215.328125 C 922.136719 216.480469 923.125 217.628906 924.125 218.765625 C 926.125 221.042969 928.164062 223.289062 930.257812 225.476562 C 934.441406 229.855469 938.839844 234.03125 943.554688 237.8125 C 945.914062 239.699219 948.351562 241.484375 950.886719 243.113281 C 953.421875 244.742188 956.054688 246.214844 958.792969 247.4375 C 960.164062 248.046875 961.558594 248.597656 962.980469 249.0625 C 964.398438 249.527344 965.84375 249.914062 967.304688 250.191406 C 968.765625 250.472656 970.242188 250.652344 971.722656 250.707031 C 973.203125 250.761719 974.6875 250.691406 976.148438 250.484375 C 976.328125 250.457031 976.511719 250.4375 976.695312 250.402344 L 976.96875 250.355469 L 977.101562 250.332031 C 977.148438 250.324219 977.195312 250.316406 977.234375 250.308594 C 977.578125 250.242188 977.914062 250.148438 978.246094 250.039062 C 978.910156 249.8125 979.550781 249.503906 980.160156 249.132812 C 980.769531 248.761719 981.34375 248.328125 981.890625 247.851562 C 982.4375 247.378906 982.949219 246.859375 983.4375 246.316406 C 984.40625 245.222656 985.265625 244.015625 986.039062 242.753906 C 986.808594 241.492188 987.492188 240.171875 988.109375 238.816406 C 989.339844 236.105469 990.296875 233.261719 991.042969 230.367188 C 991.792969 227.472656 992.332031 224.519531 992.671875 221.550781 C 993.015625 218.578125 993.164062 215.582031 993.109375 212.59375 C 993.050781 209.605469 992.789062 206.625 992.296875 203.6875 C 991.800781 200.75 991.074219 197.855469 990.066406 195.070312 C 989.058594 192.285156 987.78125 189.601562 986.183594 187.128906 C 984.59375 184.65625 982.6875 182.394531 980.496094 180.453125 C 980.222656 180.210938 979.945312 179.976562 979.664062 179.742188 C 979.519531 179.625 979.378906 179.511719 979.234375 179.398438 C 979.164062 179.339844 979.09375 179.285156 979.023438 179.234375 L 978.8125 179.074219 C 978.246094 178.652344 977.648438 178.269531 977.027344 177.925781 C 976.402344 177.585938 975.757812 177.28125 975.09375 177.007812 C 974.429688 176.742188 973.746094 176.507812 973.054688 176.304688 C 971.664062 175.902344 970.230469 175.621094 968.777344 175.445312 C 967.324219 175.265625 965.847656 175.191406 964.371094 175.1875 C 961.417969 175.1875 958.449219 175.480469 955.515625 175.988281 C 954.050781 176.242188 952.589844 176.550781 951.152344 176.914062 C 949.714844 177.277344 948.28125 177.703125 946.859375 178.167969 C 944.015625 179.097656 941.210938 180.167969 938.472656 181.375 C 937.101562 181.980469 935.75 182.617188 934.421875 183.300781 C 933.097656 183.980469 931.796875 184.703125 930.539062 185.480469 C 929.285156 186.261719 928.070312 187.101562 926.960938 188.027344 C 926.40625 188.488281 925.882812 188.976562 925.40625 189.488281 C 924.929688 190 924.503906 190.539062 924.175781 191.101562 C 923.847656 191.660156 923.621094 192.242188 923.558594 192.796875 C 923.496094 193.347656 923.597656 193.875 923.855469 194.386719 C 923.988281 194.640625 924.152344 194.890625 924.351562 195.128906 L 924.429688 195.21875 C 924.453125 195.246094 924.476562 195.269531 924.5 195.296875 C 924.523438 195.320312 924.546875 195.34375 924.570312 195.371094 L 924.644531 195.441406 C 924.746094 195.535156 924.847656 195.617188 924.957031 195.691406 C 925.179688 195.839844 925.417969 195.949219 925.683594 196.023438 C 925.945312 196.101562 926.234375 196.140625 926.535156 196.148438 C 927.140625 196.164062 927.796875 196.046875 928.453125 195.855469 C 929.109375 195.667969 929.769531 195.398438 930.417969 195.09375 C 931.710938 194.480469 932.972656 193.710938 934.191406 192.875 C 935.414062 192.042969 936.601562 191.136719 937.765625 190.199219 C 938.925781 189.257812 940.0625 188.277344 941.179688 187.273438 C 943.417969 185.265625 945.578125 183.160156 947.691406 181.007812 C 949.800781 178.851562 951.863281 176.644531 953.886719 174.398438 C 955.910156 172.15625 957.894531 169.875 959.839844 167.5625 C 960.816406 166.40625 961.78125 165.242188 962.730469 164.070312 C 963.683594 162.898438 964.625 161.714844 965.539062 160.523438 C 965.765625 160.226562 965.992188 159.925781 966.210938 159.628906 C 966.433594 159.324219 966.632812 159.042969 966.824219 158.742188 C 967.207031 158.140625 967.542969 157.503906 967.839844 156.847656 C 968.429688 155.527344 968.863281 154.125 969.183594 152.6875 C 969.503906 151.25 969.707031 149.78125 969.835938 148.296875 C 969.964844 146.816406 970.015625 145.320312 970.007812 143.824219 C 969.988281 140.828125 969.75 137.828125 969.371094 134.839844 C 968.992188 131.851562 968.476562 128.875 967.863281 125.917969 C 967.25 122.960938 966.535156 120.023438 965.746094 117.105469 C 964.953125 114.1875 964.082031 111.289062 963.136719 108.414062 C 962.664062 106.976562 962.175781 105.546875 961.667969 104.121094 C 961.160156 102.695312 960.632812 101.273438 960.089844 99.863281 C 959.003906 97.039062 957.839844 94.242188 956.597656 91.484375 C 955.972656 90.109375 955.328125 88.738281 954.652344 87.386719 C 953.980469 86.03125 953.28125 84.691406 952.542969 83.375 C 951.804688 82.054688 951.03125 80.757812 950.195312 79.507812 C 949.777344 78.882812 949.339844 78.269531 948.882812 77.679688 C 948.652344 77.386719 948.414062 77.097656 948.167969 76.816406 C 947.925781 76.539062 947.667969 76.265625 947.40625 76.015625 C 947.347656 75.953125 947.273438 75.894531 947.207031 75.839844 C 947.136719 75.78125 947.066406 75.722656 946.992188 75.664062 C 946.847656 75.546875 946.699219 75.433594 946.550781 75.324219 C 946.253906 75.097656 945.949219 74.886719 945.636719 74.6875 C 945.011719 74.285156 944.355469 73.933594 943.675781 73.644531 C 942.996094 73.351562 942.292969 73.125 941.570312 72.96875 C 940.851562 72.8125 940.113281 72.730469 939.375 72.71875 C 937.898438 72.695312 936.421875 72.96875 935.015625 73.4375 C 933.605469 73.910156 932.257812 74.578125 930.984375 75.359375 C 929.707031 76.140625 928.496094 77.039062 927.339844 78 C 926.183594 78.960938 925.082031 79.988281 924.019531 81.058594 C 922.957031 82.128906 921.9375 83.242188 920.949219 84.382812 C 920.453125 84.953125 919.964844 85.527344 919.480469 86.109375 C 919.242188 86.402344 919 86.695312 918.761719 86.988281 C 918.523438 87.28125 918.289062 87.570312 918.066406 87.867188 C 917.613281 88.464844 917.183594 89.082031 916.769531 89.707031 C 916.355469 90.335938 915.957031 90.972656 915.570312 91.621094 C 914.792969 92.910156 914.066406 94.234375 913.367188 95.570312 C 911.96875 98.246094 910.6875 100.988281 909.492188 103.765625 C 908.296875 106.542969 907.191406 109.359375 906.152344 112.199219 C 904.085938 117.882812 902.308594 123.667969 900.828125 129.527344 C 900.089844 132.457031 899.425781 135.40625 898.847656 138.367188 C 898.265625 141.332031 897.769531 144.308594 897.363281 147.296875 C 896.957031 150.289062 896.648438 153.289062 896.441406 156.292969 C 896.234375 159.296875 896.140625 162.308594 896.171875 165.316406 C 896.203125 168.324219 896.359375 171.328125 896.671875 174.3125 C 896.984375 177.296875 897.449219 180.261719 898.09375 183.1875 C 898.738281 186.109375 899.570312 188.988281 900.609375 191.785156 C 901.648438 194.582031 902.902344 197.300781 904.378906 199.882812 C 905.117188 201.175781 905.910156 202.4375 906.765625 203.65625 L 907.089844 204.109375 C 907.195312 204.261719 907.300781 204.414062 907.414062 204.5625 L 907.746094 205.011719 C 907.859375 205.160156 907.96875 205.308594 908.085938 205.453125 L 908.425781 205.894531 L 908.597656 206.113281 L 908.769531 206.324219 C 908.882812 206.464844 909.003906 206.601562 909.117188 206.738281 C 909.238281 206.875 909.359375 207.011719 909.484375 207.148438 C 910.46875 208.230469 911.5625 209.253906 912.667969 210.285156 C 913.773438 211.324219 914.902344 212.367188 915.96875 213.507812 C 916.5 214.078125 917.019531 214.671875 917.503906 215.304688 L 917.6875 215.542969 L 917.863281 215.785156 C 917.980469 215.945312 918.089844 216.113281 918.207031 216.28125 C 918.261719 216.363281 918.316406 216.449219 918.371094 216.535156 C 918.425781 216.621094 918.480469 216.699219 918.53125 216.792969 L 918.695312 217.0625 C 918.71875 217.109375 918.746094 217.152344 918.769531 217.199219 L 918.980469 217.609375 L 919.109375 217.878906 C 919.195312 218.054688 919.277344 218.238281 919.359375 218.417969 C 919.441406 218.601562 919.515625 218.785156 919.59375 218.96875 C 919.664062 219.15625 919.738281 219.339844 919.808594 219.527344 C 920.082031 220.277344 920.3125 221.039062 920.492188 221.8125 C 920.863281 223.355469 921.046875 224.910156 921.183594 226.4375 C 921.316406 227.964844 921.414062 229.46875 921.574219 230.953125 L 921.636719 231.519531 C 921.65625 231.707031 921.675781 231.882812 921.699219 232.066406 C 921.746094 232.425781 921.800781 232.785156 921.867188 233.148438 C 921.996094 233.867188 922.152344 234.589844 922.335938 235.304688 C 922.703125 236.734375 923.160156 238.148438 923.710938 239.515625 C 924.257812 240.886719 924.902344 242.214844 925.671875 243.445312 C 926.058594 244.058594 926.476562 244.644531 926.933594 245.183594 C 927.390625 245.722656 927.894531 246.214844 928.4375 246.617188 L 928.371094 246.574219 C 929.574219 247.300781 931.0625 247.628906 932.476562 247.507812 C 933.183594 247.445312 933.875 247.265625 934.460938 246.953125 C 934.753906 246.792969 935.015625 246.605469 935.234375 246.386719 C 935.453125 246.164062 935.628906 245.917969 935.75 245.644531 C 936 245.097656 936.027344 244.445312 935.882812 243.78125 C 935.863281 243.695312 935.84375 243.613281 935.820312 243.527344 C 935.808594 243.488281 935.796875 243.445312 935.785156 243.402344 L 935.726562 243.214844 L 935.703125 243.148438 L 935.652344 243.007812 L 935.554688 242.730469 C 935.425781 242.363281 935.285156 241.996094 935.140625 241.632812 C 934.5625 240.179688 933.878906 238.769531 933.097656 237.410156 C 931.542969 234.6875 929.589844 232.195312 927.378906 229.953125 C 925.164062 227.707031 922.695312 225.707031 920.089844 223.90625 C 918.785156 223.003906 917.445312 222.148438 916.078125 221.332031 C 915.398438 220.921875 914.707031 220.523438 914.015625 220.128906 C 913.667969 219.933594 913.320312 219.738281 912.972656 219.546875 L 912.703125 219.394531 L 912.632812 219.359375 L 912.601562 219.339844 L 912.5625 219.320312 L 912.425781 219.234375 C 912.253906 219.128906 912.082031 219.019531 911.910156 218.910156 C 910.546875 218.046875 909.214844 217.140625 907.90625 216.203125 C 906.59375 215.261719 905.308594 214.289062 904.058594 213.273438 C 902.804688 212.253906 901.582031 211.195312 900.417969 210.070312 C 899.835938 209.507812 899.269531 208.925781 898.726562 208.320312 C 898.183594 207.71875 897.660156 207.089844 897.175781 206.429688 C 896.933594 206.101562 896.703125 205.761719 896.484375 205.410156 C 896.265625 205.0625 896.0625 204.703125 895.875 204.328125 C 895.691406 203.953125 895.527344 203.566406 895.398438 203.164062 C 895.332031 202.964844 895.273438 202.757812 895.230469 202.550781 C 895.183594 202.34375 895.144531 202.128906 895.125 201.914062 C 895.078125 201.484375 895.085938 201.042969 895.171875 200.609375 C 895.210938 200.394531 895.269531 200.179688 895.347656 199.972656 C 895.425781 199.765625 895.523438 199.566406 895.632812 199.375 C 895.742188 199.183594 895.867188 199.003906 896.003906 198.835938 C 896.140625 198.667969 896.285156 198.507812 896.441406 198.363281 C 896.519531 198.289062 896.601562 198.21875 896.679688 198.148438 C 896.765625 198.082031 896.84375 198.015625 896.929688 197.953125 C 897.097656 197.824219 897.273438 197.707031 897.449219 197.59375 Z M 897.808594 198.15625 " fill-opacity="1" fill-rule="nonzero"/></g><path fill="#fff6f0" d="M 862.898438 152.09375 C 863.488281 151.902344 864.128906 151.839844 864.761719 151.898438 C 865.398438 151.960938 866.019531 152.144531 866.605469 152.398438 C 866.898438 152.527344 867.183594 152.675781 867.460938 152.835938 C 867.738281 152.996094 868.003906 153.171875 868.265625 153.351562 C 868.785156 153.722656 869.277344 154.128906 869.742188 154.558594 C 870.675781 155.417969 871.515625 156.363281 872.304688 157.339844 C 872.699219 157.828125 873.078125 158.328125 873.449219 158.835938 C 873.816406 159.339844 874.179688 159.847656 874.527344 160.367188 C 874.875 160.886719 875.21875 161.40625 875.554688 161.929688 C 875.890625 162.457031 876.21875 162.984375 876.542969 163.515625 C 877.191406 164.578125 877.8125 165.652344 878.425781 166.730469 C 878.734375 167.269531 879.03125 167.8125 879.328125 168.355469 L 880.21875 169.984375 C 880.808594 171.074219 881.382812 172.164062 881.960938 173.257812 L 883.679688 176.53125 C 884.246094 177.625 884.820312 178.714844 885.394531 179.800781 C 885.964844 180.890625 886.546875 181.96875 887.128906 183.046875 C 887.421875 183.585938 887.71875 184.125 888.015625 184.660156 C 888.3125 185.195312 888.613281 185.726562 888.914062 186.257812 C 890.128906 188.382812 891.398438 190.46875 892.789062 192.464844 C 894.183594 194.457031 895.703125 196.367188 897.519531 197.988281 L 897.195312 198.421875 C 896.132812 197.746094 895.160156 196.9375 894.25 196.070312 C 893.335938 195.203125 892.492188 194.269531 891.6875 193.308594 C 890.085938 191.378906 888.660156 189.320312 887.320312 187.222656 C 886.988281 186.695312 886.660156 186.167969 886.335938 185.636719 C 886.015625 185.105469 885.699219 184.570312 885.382812 184.035156 C 884.753906 182.960938 884.148438 181.878906 883.550781 180.792969 C 882.953125 179.710938 882.371094 178.617188 881.792969 177.523438 C 881.21875 176.429688 880.648438 175.332031 880.082031 174.238281 L 878.398438 170.945312 L 877.554688 169.304688 L 876.707031 167.667969 C 876.144531 166.574219 875.566406 165.492188 874.988281 164.414062 C 874.695312 163.875 874.398438 163.339844 874.097656 162.808594 C 873.800781 162.273438 873.5 161.742188 873.1875 161.21875 C 872.878906 160.691406 872.566406 160.167969 872.242188 159.652344 C 871.921875 159.136719 871.589844 158.628906 871.25 158.125 C 870.910156 157.621094 870.558594 157.128906 870.195312 156.644531 C 869.832031 156.160156 869.449219 155.695312 869.050781 155.242188 C 868.65625 154.789062 868.230469 154.363281 867.789062 153.960938 C 867.566406 153.761719 867.335938 153.570312 867.097656 153.390625 C 866.859375 153.214844 866.613281 153.042969 866.359375 152.886719 C 866.101562 152.734375 865.835938 152.601562 865.5625 152.480469 C 865.289062 152.363281 865.007812 152.261719 864.714844 152.191406 C 864.128906 152.046875 863.515625 152.011719 862.898438 152.09375 Z M 862.898438 152.09375 " fill-opacity="1" fill-rule="nonzero"/><g clip-path="url(#93e8edb77e)"><path fill="#fff6f0" d="M 850.652344 163.910156 C 851.167969 163.570312 851.765625 163.335938 852.394531 163.222656 C 853.019531 163.109375 853.667969 163.117188 854.304688 163.207031 C 854.621094 163.253906 854.933594 163.316406 855.242188 163.394531 C 855.554688 163.476562 855.859375 163.574219 856.160156 163.679688 C 856.757812 163.894531 857.339844 164.152344 857.90625 164.441406 C 859.035156 165.019531 860.097656 165.699219 861.121094 166.429688 C 861.632812 166.792969 862.132812 167.171875 862.625 167.558594 C 863.117188 167.945312 863.601562 168.339844 864.078125 168.746094 C 864.554688 169.148438 865.023438 169.558594 865.488281 169.972656 C 865.953125 170.386719 866.410156 170.808594 866.867188 171.234375 C 867.777344 172.078125 868.664062 172.949219 869.546875 173.820312 C 869.988281 174.257812 870.421875 174.699219 870.855469 175.140625 L 872.152344 176.46875 C 873.011719 177.359375 873.863281 178.253906 874.714844 179.148438 L 877.25 181.839844 C 878.09375 182.738281 878.9375 183.632812 879.785156 184.523438 C 880.628906 185.417969 881.480469 186.296875 882.332031 187.179688 C 882.761719 187.621094 883.191406 188.058594 883.621094 188.492188 C 884.050781 188.925781 884.484375 189.359375 884.921875 189.789062 C 886.664062 191.503906 888.449219 193.171875 890.328125 194.714844 C 892.207031 196.253906 894.1875 197.679688 896.375 198.746094 L 896.15625 199.300781 C 894.953125 198.929688 893.796875 198.414062 892.683594 197.820312 C 891.574219 197.230469 890.507812 196.558594 889.476562 195.847656 C 887.414062 194.417969 885.484375 192.820312 883.632812 191.160156 C 883.171875 190.742188 882.710938 190.320312 882.257812 189.898438 C 881.804688 189.472656 881.355469 189.039062 880.910156 188.609375 C 880.015625 187.746094 879.140625 186.867188 878.269531 185.984375 C 877.402344 185.097656 876.550781 184.203125 875.699219 183.304688 C 874.851562 182.40625 874.007812 181.503906 873.167969 180.601562 L 870.65625 177.882812 L 869.40625 176.527344 L 868.148438 175.179688 C 867.308594 174.28125 866.464844 173.394531 865.613281 172.511719 C 865.1875 172.070312 864.757812 171.636719 864.324219 171.203125 C 863.894531 170.769531 863.460938 170.339844 863.019531 169.917969 C 862.578125 169.496094 862.136719 169.074219 861.6875 168.664062 C 861.238281 168.253906 860.78125 167.855469 860.316406 167.460938 C 859.855469 167.066406 859.382812 166.6875 858.902344 166.320312 C 858.421875 165.953125 857.929688 165.605469 857.421875 165.277344 C 856.917969 164.949219 856.398438 164.652344 855.859375 164.386719 C 855.59375 164.253906 855.320312 164.132812 855.042969 164.023438 C 854.761719 163.914062 854.480469 163.816406 854.195312 163.738281 C 853.90625 163.660156 853.613281 163.601562 853.316406 163.558594 C 853.023438 163.519531 852.722656 163.5 852.421875 163.511719 C 851.824219 163.53125 851.222656 163.667969 850.652344 163.910156 Z M 850.652344 163.910156 " fill-opacity="1" fill-rule="nonzero"/></g><g clip-path="url(#782b6b32ee)"><path fill="#a68cb6" d="M 522.871094 1.304688 C 522.8125 1.261719 522.75 1.257812 522.683594 1.285156 C 522.496094 1.121094 522.640625 0.746094 522.292969 0.683594 C 521.746094 0.132812 521.1875 0.339844 520.632812 0.667969 C 519.082031 1.585938 517.714844 2.742188 516.417969 3.976562 C 511.773438 8.414062 508.265625 13.617188 505.648438 19.496094 C 501.078125 29.753906 500.445312 40.34375 502.675781 51.199219 C 503.710938 56.234375 505.605469 60.992188 507.722656 65.660156 C 508.964844 68.40625 510.371094 71.066406 511.710938 73.761719 C 511.800781 73.839844 511.894531 73.910156 511.984375 73.988281 C 511.988281 74.121094 512.035156 74.269531 511.988281 74.375 C 511.988281 74.375 511.988281 74.375 511.984375 74.378906 C 511.945312 74.464844 511.824219 74.40625 511.773438 74.308594 C 510.714844 73.785156 509.800781 73.058594 508.925781 72.28125 C 508.328125 71.746094 507.707031 71.273438 506.949219 70.996094 C 505.671875 69.839844 504.300781 69.800781 503.105469 70.828125 C 504.34375 74.039062 506.890625 76 509.640625 77.777344 C 510.664062 78.441406 511.640625 79.171875 512.625 79.886719 C 514.984375 81.597656 514.742188 81.214844 516.917969 80.269531 C 517.402344 80.058594 517.832031 79.738281 518.226562 79.375 C 518.371094 79.242188 518.492188 79.105469 518.492188 78.894531 C 519.035156 78.621094 519.042969 78.113281 519.023438 77.617188 C 518.96875 76.144531 518.894531 74.671875 518.828125 73.199219 C 519 72.890625 518.949219 72.570312 518.882812 72.25 C 519.0625 71.945312 519.003906 71.621094 518.960938 71.300781 C 519.125 71.109375 519.066406 70.867188 519.097656 70.644531 C 519.515625 67.652344 520.265625 64.75 521.511719 61.984375 C 521.605469 61.773438 521.679688 61.558594 521.765625 61.347656 C 521.867188 61.097656 521.984375 60.8125 521.75 60.613281 C 521.570312 60.460938 521.246094 60.503906 521.097656 60.636719 C 520.441406 61.222656 519.527344 61.3125 518.839844 61.824219 C 518.535156 62.050781 518.347656 62.382812 518.164062 62.726562 C 516.726562 65.355469 515.792969 68.167969 515.144531 71.082031 C 515.089844 71.339844 515.070312 71.617188 514.960938 71.855469 C 514.835938 72.132812 514.597656 72.054688 514.390625 71.917969 C 514.425781 71.613281 514.304688 71.398438 514.042969 71.257812 C 514.019531 70.976562 513.976562 70.707031 513.683594 70.5625 C 513.71875 70.492188 513.695312 70.449219 513.625 70.425781 C 513.613281 70.15625 513.558594 69.910156 513.292969 69.765625 C 513.246094 69.582031 513.222656 69.390625 513.144531 69.222656 C 512.289062 67.363281 511.40625 65.515625 510.574219 63.644531 C 509.816406 61.945312 509.113281 60.226562 508.390625 58.519531 C 508.253906 58.042969 508.136719 57.566406 507.984375 57.097656 C 506.507812 52.554688 505.605469 47.898438 505.398438 43.121094 C 505.324219 41.414062 505.304688 39.707031 505.261719 38 C 505.445312 37.675781 505.371094 37.34375 505.304688 37.007812 C 505.484375 36.699219 505.421875 36.382812 505.363281 36.0625 C 505.554688 35.785156 505.472656 35.480469 505.445312 35.179688 C 505.589844 35.007812 505.578125 34.816406 505.511719 34.621094 C 505.558594 34.554688 505.5625 34.488281 505.515625 34.417969 C 505.671875 34.226562 505.617188 33.984375 505.65625 33.769531 C 505.839844 32.691406 505.832031 31.585938 506.148438 30.53125 C 506.0625 30.4375 506.015625 30.125 505.855469 30.503906 C 505.746094 30.757812 505.671875 30.773438 505.605469 30.703125 C 505.550781 30.644531 505.507812 30.519531 505.460938 30.429688 C 506.152344 27.046875 507.242188 23.785156 508.546875 20.597656 C 508.695312 20.3125 508.84375 20.023438 508.992188 19.738281 C 509.878906 18.039062 510.765625 16.335938 511.648438 14.632812 C 511.71875 14.601562 511.769531 14.554688 511.796875 14.492188 C 511.8125 14.449219 511.824219 14.40625 511.824219 14.351562 C 511.941406 14.296875 511.996094 14.203125 511.992188 14.078125 C 512.113281 14.027344 512.167969 13.933594 512.164062 13.800781 C 512.285156 13.753906 512.339844 13.660156 512.335938 13.527344 C 512.457031 13.476562 512.519531 13.386719 512.511719 13.253906 C 512.636719 13.210938 512.695312 13.117188 512.6875 12.984375 L 512.6875 12.980469 C 512.8125 12.941406 512.875 12.847656 512.863281 12.71875 L 512.867188 12.710938 C 512.929688 12.632812 512.992188 12.542969 513.046875 12.453125 L 513.050781 12.441406 C 513.175781 12.402344 513.238281 12.316406 513.230469 12.183594 L 513.238281 12.175781 C 513.359375 12.132812 513.421875 12.046875 513.414062 11.914062 L 513.421875 11.90625 C 513.421875 11.90625 513.425781 11.902344 513.425781 11.902344 C 513.425781 11.902344 513.421875 11.90625 513.421875 11.90625 C 513.546875 11.867188 513.609375 11.777344 513.601562 11.644531 L 513.605469 11.636719 C 513.734375 11.597656 513.792969 11.511719 513.789062 11.378906 L 513.789062 11.375 C 513.917969 11.332031 513.980469 11.246094 513.976562 11.113281 C 514.605469 10.335938 515.230469 9.566406 515.859375 8.789062 C 516.058594 8.285156 516.464844 7.9375 516.8125 7.546875 C 516.875 7.5625 516.921875 7.589844 516.964844 7.621094 C 517.03125 7.671875 517.078125 7.738281 517.105469 7.832031 C 517.398438 7.566406 517.710938 7.320312 517.867188 6.933594 C 517.902344 6.8125 517.953125 6.703125 518.050781 6.613281 C 517.992188 6.71875 517.925781 6.828125 517.867188 6.933594 C 517.980469 6.867188 518.074219 6.792969 518.054688 6.652344 C 518.25 6.613281 518.371094 6.492188 518.441406 6.308594 C 518.570312 6.289062 518.648438 6.222656 518.652344 6.085938 C 518.773438 6.03125 518.867188 5.957031 518.882812 5.816406 C 518.949219 5.796875 518.996094 5.765625 519.023438 5.699219 C 519.355469 5.488281 519.628906 5.222656 519.835938 4.890625 C 520.0625 4.730469 520.296875 4.574219 520.421875 4.3125 C 520.601562 4.261719 520.699219 4.113281 520.804688 3.976562 C 521.703125 3.347656 522.476562 2.558594 523.539062 2.078125 C 523.222656 1.8125 523.277344 1.371094 522.871094 1.304688 Z M 513.398438 70.464844 C 513.398438 70.464844 513.398438 70.464844 513.398438 70.460938 C 513.398438 70.460938 513.398438 70.464844 513.398438 70.464844 C 513.398438 70.460938 513.398438 70.457031 513.398438 70.457031 C 513.398438 70.457031 513.398438 70.460938 513.398438 70.460938 C 513.402344 70.460938 513.40625 70.460938 513.410156 70.457031 C 513.40625 70.464844 513.402344 70.464844 513.398438 70.464844 Z M 513.050781 11.328125 C 513.035156 11.347656 513.015625 11.367188 512.996094 11.382812 C 513 11.378906 513.003906 11.371094 513.007812 11.367188 C 513.019531 11.347656 513.03125 11.328125 513.046875 11.3125 C 513.046875 11.3125 513.050781 11.320312 513.050781 11.328125 Z M 511.648438 14.617188 C 511.644531 14.617188 511.644531 14.613281 511.640625 14.613281 C 511.636719 14.605469 511.625 14.605469 511.621094 14.597656 L 511.597656 14.578125 L 511.644531 14.613281 C 511.648438 14.613281 511.648438 14.609375 511.652344 14.609375 C 511.648438 14.609375 511.648438 14.613281 511.648438 14.617188 Z M 513.007812 11.21875 C 513.023438 11.246094 513.035156 11.277344 513.042969 11.304688 C 513.03125 11.324219 513.019531 11.339844 513.007812 11.359375 C 513.027344 11.316406 513.03125 11.269531 513.007812 11.21875 Z M 512.917969 11.476562 C 512.902344 11.5 512.886719 11.519531 512.875 11.539062 C 512.871094 11.539062 512.871094 11.542969 512.867188 11.542969 C 512.886719 11.519531 512.902344 11.5 512.917969 11.476562 Z M 520.882812 1.882812 C 520.882812 1.882812 520.882812 1.878906 520.882812 1.875 C 520.882812 1.875 520.886719 1.871094 520.886719 1.871094 C 520.890625 1.871094 520.894531 1.867188 520.898438 1.867188 C 520.894531 1.875 520.886719 1.878906 520.882812 1.882812 Z M 520.484375 2.164062 C 520.480469 2.164062 520.472656 2.164062 520.46875 2.171875 C 520.476562 2.171875 520.480469 2.164062 520.484375 2.164062 Z M 518.074219 6.417969 C 518.0625 6.394531 518.050781 6.375 518.035156 6.355469 C 518.046875 6.351562 518.0625 6.347656 518.078125 6.34375 C 518.074219 6.371094 518.074219 6.394531 518.074219 6.417969 Z M 518.742188 5.875 C 518.765625 5.84375 518.800781 5.820312 518.847656 5.804688 C 518.804688 5.824219 518.769531 5.84375 518.742188 5.875 Z M 518.742188 5.875 " fill-opacity="1" fill-rule="nonzero"/></g><path fill="#a68cb6" d="M 513.050781 12.433594 C 512.992188 12.523438 512.933594 12.609375 512.875 12.695312 C 513 12.652344 513.058594 12.5625 513.050781 12.433594 Z M 513.050781 12.433594 " fill-opacity="1" fill-rule="nonzero"/><g clip-path="url(#dcb838612d)"><path fill="#a68cb6" d="M 522.871094 249.582031 C 522.8125 249.539062 522.75 249.535156 522.683594 249.5625 C 522.496094 249.398438 522.640625 249.023438 522.292969 248.960938 C 521.746094 248.410156 521.1875 248.617188 520.632812 248.945312 C 519.082031 249.863281 517.714844 251.015625 516.417969 252.253906 C 511.773438 256.691406 508.265625 261.894531 505.648438 267.773438 C 501.078125 278.03125 500.445312 288.621094 502.675781 299.476562 C 503.710938 304.511719 505.605469 309.269531 507.722656 313.9375 C 508.964844 316.683594 510.371094 319.34375 511.710938 322.039062 C 511.800781 322.113281 511.894531 322.1875 511.984375 322.261719 C 511.988281 322.394531 512.035156 322.542969 511.988281 322.652344 C 511.988281 322.652344 511.988281 322.652344 511.984375 322.65625 C 511.945312 322.742188 511.824219 322.683594 511.773438 322.585938 C 510.714844 322.0625 509.800781 321.335938 508.925781 320.554688 C 508.328125 320.023438 507.707031 319.550781 506.949219 319.273438 C 505.671875 318.117188 504.300781 318.078125 503.105469 319.105469 C 504.34375 322.316406 506.890625 324.277344 509.640625 326.054688 C 510.664062 326.71875 511.640625 327.449219 512.625 328.160156 C 514.984375 329.875 514.742188 329.492188 516.917969 328.546875 C 517.402344 328.335938 517.832031 328.011719 518.226562 327.648438 C 518.371094 327.515625 518.492188 327.382812 518.492188 327.171875 C 519.035156 326.898438 519.042969 326.390625 519.023438 325.894531 C 518.96875 324.421875 518.894531 322.949219 518.828125 321.476562 C 519 321.167969 518.949219 320.847656 518.882812 320.527344 C 519.0625 320.222656 519.003906 319.898438 518.960938 319.578125 C 519.125 319.386719 519.066406 319.144531 519.097656 318.921875 C 519.515625 315.929688 520.265625 313.027344 521.511719 310.261719 C 521.605469 310.050781 521.679688 309.835938 521.765625 309.625 C 521.867188 309.375 521.984375 309.089844 521.75 308.890625 C 521.570312 308.738281 521.246094 308.78125 521.097656 308.914062 C 520.441406 309.5 519.527344 309.589844 518.839844 310.101562 C 518.535156 310.328125 518.347656 310.660156 518.164062 311 C 516.726562 313.632812 515.792969 316.445312 515.144531 319.359375 C 515.089844 319.617188 515.070312 319.894531 514.960938 320.132812 C 514.835938 320.410156 514.597656 320.332031 514.390625 320.191406 C 514.425781 319.890625 514.304688 319.675781 514.042969 319.535156 C 514.019531 319.253906 513.976562 318.984375 513.683594 318.839844 C 513.71875 318.769531 513.695312 318.726562 513.625 318.703125 C 513.613281 318.433594 513.558594 318.1875 513.292969 318.042969 C 513.246094 317.859375 513.222656 317.667969 513.144531 317.5 C 512.289062 315.636719 511.40625 313.792969 510.574219 311.921875 C 509.816406 310.222656 509.113281 308.503906 508.390625 306.796875 C 508.253906 306.320312 508.136719 305.839844 507.984375 305.375 C 506.507812 300.828125 505.605469 296.175781 505.398438 291.394531 C 505.324219 289.6875 505.304688 287.984375 505.261719 286.277344 C 505.445312 285.953125 505.371094 285.617188 505.304688 285.28125 C 505.484375 284.976562 505.421875 284.660156 505.363281 284.339844 C 505.554688 284.058594 505.472656 283.757812 505.445312 283.457031 C 505.589844 283.285156 505.578125 283.09375 505.511719 282.898438 C 505.558594 282.832031 505.5625 282.765625 505.515625 282.695312 C 505.671875 282.5 505.617188 282.261719 505.65625 282.042969 C 505.839844 280.96875 505.832031 279.863281 506.148438 278.804688 C 506.0625 278.710938 506.015625 278.402344 505.855469 278.78125 C 505.746094 279.035156 505.671875 279.050781 505.605469 278.980469 C 505.550781 278.921875 505.507812 278.796875 505.460938 278.707031 C 506.152344 275.324219 507.242188 272.0625 508.546875 268.875 C 508.695312 268.589844 508.84375 268.300781 508.992188 268.015625 C 509.878906 266.316406 510.765625 264.613281 511.648438 262.910156 C 511.71875 262.878906 511.769531 262.828125 511.796875 262.769531 C 511.8125 262.726562 511.824219 262.679688 511.824219 262.628906 C 511.941406 262.574219 511.996094 262.480469 511.992188 262.355469 C 512.113281 262.304688 512.167969 262.210938 512.164062 262.078125 C 512.285156 262.03125 512.339844 261.9375 512.335938 261.804688 C 512.457031 261.753906 512.519531 261.664062 512.511719 261.53125 C 512.636719 261.484375 512.695312 261.394531 512.6875 261.261719 L 512.6875 261.257812 C 512.8125 261.214844 512.875 261.125 512.863281 260.996094 L 512.867188 260.988281 C 512.929688 260.90625 512.992188 260.820312 513.046875 260.730469 L 513.050781 260.71875 C 513.175781 260.679688 513.238281 260.59375 513.230469 260.460938 L 513.238281 260.449219 C 513.359375 260.410156 513.421875 260.324219 513.414062 260.191406 L 513.421875 260.179688 C 513.421875 260.179688 513.425781 260.179688 513.425781 260.179688 C 513.425781 260.179688 513.421875 260.179688 513.421875 260.179688 C 513.546875 260.140625 513.609375 260.054688 513.601562 259.921875 L 513.605469 259.914062 C 513.734375 259.875 513.792969 259.789062 513.789062 259.65625 L 513.789062 259.652344 C 513.917969 259.609375 513.980469 259.523438 513.976562 259.386719 C 514.605469 258.613281 515.230469 257.84375 515.859375 257.066406 C 516.058594 256.5625 516.464844 256.214844 516.8125 255.824219 C 516.875 255.839844 516.921875 255.867188 516.964844 255.898438 C 517.03125 255.949219 517.078125 256.015625 517.105469 256.109375 C 517.398438 255.839844 517.710938 255.597656 517.867188 255.210938 C 517.902344 255.089844 517.953125 254.980469 518.050781 254.890625 C 517.992188 254.996094 517.925781 255.101562 517.867188 255.210938 C 517.980469 255.144531 518.074219 255.070312 518.054688 254.925781 C 518.25 254.890625 518.371094 254.765625 518.441406 254.585938 C 518.570312 254.5625 518.648438 254.496094 518.652344 254.363281 C 518.773438 254.308594 518.867188 254.234375 518.882812 254.09375 C 518.949219 254.074219 518.996094 254.039062 519.023438 253.972656 C 519.355469 253.765625 519.628906 253.5 519.835938 253.167969 C 520.0625 253.003906 520.296875 252.851562 520.421875 252.589844 C 520.601562 252.539062 520.699219 252.390625 520.804688 252.253906 C 521.703125 251.625 522.476562 250.835938 523.539062 250.355469 C 523.222656 250.089844 523.277344 249.648438 522.871094 249.582031 Z M 513.398438 318.742188 C 513.398438 318.742188 513.398438 318.742188 513.398438 318.738281 C 513.398438 318.738281 513.398438 318.742188 513.398438 318.742188 C 513.398438 318.738281 513.398438 318.734375 513.398438 318.734375 C 513.398438 318.734375 513.398438 318.738281 513.398438 318.738281 C 513.402344 318.738281 513.40625 318.738281 513.410156 318.734375 C 513.40625 318.742188 513.402344 318.742188 513.398438 318.742188 Z M 513.050781 259.605469 C 513.035156 259.625 513.015625 259.644531 512.996094 259.660156 C 513 259.65625 513.003906 259.648438 513.007812 259.644531 C 513.019531 259.625 513.03125 259.605469 513.046875 259.589844 C 513.046875 259.589844 513.050781 259.597656 513.050781 259.605469 Z M 511.648438 262.894531 C 511.644531 262.894531 511.644531 262.890625 511.640625 262.890625 C 511.636719 262.882812 511.625 262.882812 511.621094 262.875 L 511.597656 262.855469 L 511.644531 262.890625 C 511.648438 262.890625 511.648438 262.886719 511.652344 262.886719 C 511.648438 262.886719 511.648438 262.890625 511.648438 262.894531 Z M 513.007812 259.496094 C 513.023438 259.523438 513.035156 259.554688 513.042969 259.582031 C 513.03125 259.601562 513.019531 259.617188 513.007812 259.636719 C 513.027344 259.59375 513.03125 259.546875 513.007812 259.496094 Z M 512.917969 259.753906 C 512.902344 259.777344 512.886719 259.796875 512.875 259.816406 C 512.871094 259.816406 512.871094 259.816406 512.867188 259.816406 C 512.886719 259.796875 512.902344 259.777344 512.917969 259.753906 Z M 520.882812 250.160156 C 520.882812 250.15625 520.882812 250.15625 520.882812 250.152344 C 520.882812 250.152344 520.886719 250.148438 520.886719 250.148438 C 520.890625 250.148438 520.894531 250.144531 520.898438 250.144531 C 520.894531 250.152344 520.886719 250.15625 520.882812 250.160156 Z M 520.484375 250.441406 C 520.480469 250.441406 520.472656 250.441406 520.46875 250.449219 C 520.476562 250.449219 520.480469 250.441406 520.484375 250.441406 Z M 518.074219 254.695312 C 518.0625 254.671875 518.050781 254.652344 518.035156 254.632812 C 518.046875 254.628906 518.0625 254.625 518.078125 254.621094 C 518.074219 254.644531 518.074219 254.671875 518.074219 254.695312 Z M 518.742188 254.152344 C 518.765625 254.121094 518.800781 254.09375 518.847656 254.078125 C 518.847656 254.078125 518.847656 254.078125 518.847656 254.082031 C 518.804688 254.101562 518.769531 254.121094 518.742188 254.152344 Z M 518.742188 254.152344 " fill-opacity="1" fill-rule="nonzero"/></g><path fill="#a68cb6" d="M 513.050781 260.710938 C 512.992188 260.796875 512.933594 260.886719 512.875 260.972656 C 513 260.929688 513.058594 260.839844 513.050781 260.710938 Z M 513.050781 260.710938 " fill-opacity="1" fill-rule="nonzero"/></svg>