<svg xmlns="http://www.w3.org/2000/svg" xmlns:xlink="http://www.w3.org/1999/xlink" width="1366" zoomAndPan="magnify" viewBox="0 0 1024.5 330.75" height="441" preserveAspectRatio="xMidYMid meet" version="1.0"><defs><clipPath id="732bda2e1c"><path d="M 0.136719 16 L 1023.863281 16 L 1023.863281 312.605469 L 0.136719 312.605469 Z M 0.136719 16 " clip-rule="nonzero"/></clipPath><clipPath id="f44f0fdad8"><path d="M -8.460938 312.605469 L 1010.371094 312.605469 C 1013.949219 312.605469 1017.382812 311.183594 1019.910156 308.652344 C 1022.441406 306.121094 1023.863281 302.691406 1023.863281 299.113281 L 1023.863281 46.46875 C 968.234375 23.425781 790.222656 -8.367188 523.207031 46.46875 C 256.191406 101.78125 48.511719 69.515625 -21.949219 46.46875 L -21.949219 299.113281 C -21.949219 302.691406 -20.527344 306.121094 -18 308.652344 C -15.46875 311.183594 -12.039062 312.605469 -8.460938 312.605469 Z M -8.460938 312.605469 " clip-rule="nonzero"/></clipPath><clipPath id="dcb9429261"><path d="M 0.136719 0 L 1023.863281 0 L 1023.863281 296.605469 L 0.136719 296.605469 Z M 0.136719 0 " clip-rule="nonzero"/></clipPath><clipPath id="5bfe64da79"><path d="M -8.460938 296.605469 L 1010.371094 296.605469 C 1013.949219 296.605469 1017.382812 295.183594 1019.910156 292.652344 C 1022.441406 290.121094 1023.863281 286.691406 1023.863281 283.113281 L 1023.863281 30.46875 C 968.234375 7.425781 790.222656 -24.367188 523.207031 30.46875 C 256.191406 85.78125 48.511719 53.515625 -21.949219 30.46875 L -21.949219 283.113281 C -21.949219 286.691406 -20.527344 290.121094 -18 292.652344 C -15.46875 295.183594 -12.039062 296.605469 -8.460938 296.605469 Z M -8.460938 296.605469 " clip-rule="nonzero"/></clipPath><clipPath id="c7c0e36595"><rect x="0" width="1024" y="0" height="297"/></clipPath><clipPath id="387993c1dd"><path d="M 946 71.871094 L 1013.539062 71.871094 L 1013.539062 255 L 946 255 Z M 946 71.871094 " clip-rule="nonzero"/></clipPath><clipPath id="b309820e50"><path d="M 887 78 L 988 78 L 988 258.480469 L 887 258.480469 Z M 887 78 " clip-rule="nonzero"/></clipPath><clipPath id="1e52397872"><path d="M 843.417969 169 L 890 169 L 890 206 L 843.417969 206 Z M 843.417969 169 " clip-rule="nonzero"/></clipPath><clipPath id="e3414f222b"><path d="M 500 0 L 524.480469 0 L 524.480469 88 L 500 88 Z M 500 0 " clip-rule="nonzero"/></clipPath></defs><g clip-path="url(#732bda2e1c)"><g clip-path="url(#f44f0fdad8)"><g transform="matrix(1, 0, 0, 1, 0, 16)"><g clip-path="url(#c7c0e36595)"><g clip-path="url(#dcb9429261)"><g clip-path="url(#5bfe64da79)"><path fill="#e89ca3" d="M 1023.863281 296.605469 L -21.445312 296.605469 L -21.445312 -0.0703125 L 1023.863281 -0.0703125 Z M 1023.863281 296.605469 " fill-opacity="1" fill-rule="nonzero"/></g></g></g></g></g></g><g clip-path="url(#387993c1dd)"><path fill="#fff6f0" d="M 946.832031 85.410156 C 948.839844 83.1875 950.941406 81.035156 953.21875 79.054688 C 954.355469 78.0625 955.539062 77.117188 956.78125 76.242188 C 958.023438 75.367188 959.324219 74.566406 960.699219 73.878906 C 962.074219 73.195312 963.527344 72.628906 965.054688 72.277344 C 965.820312 72.101562 966.601562 71.980469 967.390625 71.925781 C 968.179688 71.871094 968.980469 71.886719 969.773438 71.980469 C 970.570312 72.070312 971.355469 72.246094 972.117188 72.492188 C 972.878906 72.738281 973.617188 73.054688 974.316406 73.4375 C 975.015625 73.816406 975.675781 74.257812 976.300781 74.742188 C 976.613281 74.984375 976.914062 75.238281 977.207031 75.5 C 977.28125 75.5625 977.355469 75.628906 977.425781 75.695312 L 977.535156 75.796875 C 977.570312 75.828125 977.609375 75.867188 977.648438 75.902344 L 977.757812 76.011719 C 977.796875 76.046875 977.835938 76.082031 977.867188 76.121094 L 978.066406 76.34375 L 978.269531 76.5625 L 978.457031 76.78125 C 978.582031 76.925781 978.710938 77.070312 978.832031 77.21875 C 978.953125 77.363281 979.078125 77.511719 979.199219 77.660156 L 979.558594 78.109375 C 980.027344 78.710938 980.484375 79.320312 980.925781 79.941406 C 981.363281 80.566406 981.785156 81.195312 982.199219 81.832031 L 982.5 82.316406 L 982.652344 82.554688 L 982.800781 82.796875 L 983.097656 83.285156 L 983.386719 83.773438 C 984.15625 85.078125 984.875 86.410156 985.558594 87.757812 C 986.242188 89.109375 986.878906 90.476562 987.484375 91.859375 C 989.902344 97.394531 991.730469 103.160156 993.09375 109.015625 L 993.34375 110.113281 L 993.582031 111.214844 L 993.8125 112.320312 C 993.886719 112.6875 993.957031 113.054688 994.027344 113.425781 C 994.3125 114.898438 994.570312 116.378906 994.800781 117.863281 C 995.035156 119.34375 995.238281 120.832031 995.421875 122.320312 C 995.605469 123.808594 995.765625 125.296875 995.902344 126.789062 C 996.039062 128.28125 996.164062 129.777344 996.257812 131.269531 C 996.351562 132.765625 996.425781 134.261719 996.484375 135.757812 C 996.539062 137.253906 996.574219 138.75 996.589844 140.246094 L 996.597656 141.367188 L 996.601562 141.929688 L 996.597656 142.492188 C 996.59375 142.867188 996.597656 143.238281 996.589844 143.617188 L 996.578125 144.746094 C 996.574219 144.839844 996.578125 144.933594 996.570312 145.027344 L 996.546875 145.3125 C 996.53125 145.507812 996.515625 145.6875 996.496094 145.878906 C 996.460938 146.25 996.425781 146.625 996.386719 146.996094 C 996.304688 147.746094 996.207031 148.488281 996.097656 149.230469 C 995.875 150.71875 995.589844 152.195312 995.246094 153.660156 C 994.898438 155.125 994.488281 156.574219 994 157.996094 C 993.511719 159.421875 992.953125 160.824219 992.300781 162.1875 C 991.648438 163.550781 990.914062 164.878906 990.066406 166.136719 C 989.21875 167.394531 988.265625 168.589844 987.179688 169.667969 C 986.09375 170.742188 984.875 171.699219 983.515625 172.445312 C 982.835938 172.816406 982.125 173.132812 981.382812 173.378906 C 980.644531 173.625 979.878906 173.800781 979.101562 173.894531 C 978.324219 173.992188 977.535156 174.007812 976.753906 173.941406 C 975.972656 173.878906 975.199219 173.734375 974.445312 173.523438 C 973.695312 173.3125 972.964844 173.035156 972.261719 172.703125 C 972.089844 172.621094 971.902344 172.53125 971.722656 172.429688 C 971.542969 172.332031 971.367188 172.222656 971.195312 172.101562 C 970.851562 171.859375 970.527344 171.574219 970.25 171.238281 C 969.96875 170.902344 969.734375 170.511719 969.582031 170.085938 C 969.425781 169.660156 969.351562 169.199219 969.363281 168.75 C 969.375 168.296875 969.464844 167.855469 969.613281 167.441406 C 969.761719 167.03125 969.96875 166.648438 970.207031 166.296875 C 970.691406 165.597656 971.3125 165.023438 971.988281 164.5625 C 972.667969 164.101562 973.40625 163.75 974.171875 163.492188 C 974.554688 163.363281 974.941406 163.257812 975.335938 163.171875 C 975.726562 163.085938 976.121094 163.027344 976.519531 162.984375 C 977.3125 162.898438 978.113281 162.894531 978.902344 162.957031 C 980.480469 163.085938 982.019531 163.476562 983.476562 164.046875 C 984.929688 164.613281 986.308594 165.355469 987.597656 166.203125 C 988.246094 166.628906 988.867188 167.082031 989.476562 167.554688 C 990.078125 168.03125 990.667969 168.527344 991.238281 169.039062 C 991.519531 169.300781 991.800781 169.558594 992.074219 169.828125 L 992.28125 170.027344 L 992.480469 170.222656 C 992.609375 170.355469 992.746094 170.480469 992.878906 170.609375 L 993.078125 170.796875 L 993.285156 170.996094 C 993.417969 171.125 993.554688 171.257812 993.691406 171.390625 C 993.824219 171.519531 993.960938 171.652344 994.09375 171.785156 C 994.230469 171.917969 994.363281 172.050781 994.496094 172.1875 C 995.5625 173.257812 996.597656 174.363281 997.597656 175.5 C 999.597656 177.769531 1001.464844 180.167969 1003.160156 182.683594 C 1006.554688 187.714844 1009.261719 193.234375 1011.054688 199.054688 C 1011.953125 201.964844 1012.628906 204.941406 1013.066406 207.957031 C 1013.503906 210.96875 1013.707031 214.015625 1013.671875 217.054688 C 1013.597656 223.136719 1012.589844 229.214844 1010.570312 234.949219 C 1010.0625 236.386719 1009.492188 237.796875 1008.851562 239.175781 C 1008.535156 239.867188 1008.195312 240.546875 1007.84375 241.222656 C 1007.488281 241.894531 1007.113281 242.558594 1006.71875 243.210938 C 1005.9375 244.515625 1005.074219 245.777344 1004.121094 246.96875 C 1003.648438 247.566406 1003.148438 248.148438 1002.628906 248.707031 C 1002.105469 249.265625 1001.558594 249.800781 1000.984375 250.3125 C 999.835938 251.328125 998.578125 252.234375 997.195312 252.929688 C 996.503906 253.277344 995.78125 253.570312 995.03125 253.785156 C 994.660156 253.890625 994.28125 253.980469 993.894531 254.046875 C 993.703125 254.078125 993.511719 254.105469 993.316406 254.125 C 993.21875 254.136719 993.121094 254.144531 993.023438 254.152344 L 992.742188 254.171875 C 991.226562 254.265625 989.707031 254.214844 988.210938 254.035156 C 987.460938 253.945312 986.71875 253.824219 985.980469 253.671875 C 985.246094 253.519531 984.515625 253.339844 983.796875 253.128906 L 983.847656 252.921875 C 984.574219 253.078125 985.308594 253.207031 986.042969 253.308594 C 986.777344 253.410156 987.515625 253.484375 988.253906 253.527344 C 989.730469 253.617188 991.210938 253.578125 992.671875 253.410156 L 992.945312 253.378906 C 993.035156 253.367188 993.125 253.355469 993.210938 253.339844 C 993.386719 253.3125 993.5625 253.277344 993.738281 253.238281 C 994.085938 253.164062 994.433594 253.066406 994.769531 252.949219 C 995.449219 252.71875 996.105469 252.414062 996.734375 252.0625 C 997.988281 251.355469 999.136719 250.449219 1000.183594 249.445312 C 1000.707031 248.941406 1001.207031 248.410156 1001.679688 247.855469 C 1002.15625 247.304688 1002.613281 246.734375 1003.046875 246.144531 C 1003.480469 245.558594 1003.890625 244.953125 1004.285156 244.335938 C 1004.679688 243.71875 1005.050781 243.089844 1005.410156 242.449219 C 1005.765625 241.808594 1006.101562 241.160156 1006.421875 240.5 C 1006.746094 239.84375 1007.050781 239.175781 1007.335938 238.5 C 1007.914062 237.152344 1008.421875 235.773438 1008.875 234.378906 C 1009.328125 232.984375 1009.714844 231.566406 1010.050781 230.136719 C 1010.382812 228.707031 1010.65625 227.265625 1010.875 225.816406 C 1011.3125 222.914062 1011.519531 219.980469 1011.511719 217.046875 C 1011.507812 215.582031 1011.449219 214.117188 1011.335938 212.65625 C 1011.222656 211.191406 1011.054688 209.738281 1010.832031 208.289062 C 1010.390625 205.390625 1009.734375 202.53125 1008.875 199.726562 C 1008.015625 196.925781 1006.957031 194.1875 1005.703125 191.53125 C 1005.390625 190.871094 1005.066406 190.210938 1004.730469 189.558594 C 1004.394531 188.90625 1004.046875 188.261719 1003.6875 187.621094 C 1002.972656 186.339844 1002.207031 185.082031 1001.402344 183.851562 C 999.796875 181.390625 998.023438 179.035156 996.105469 176.796875 C 995.148438 175.675781 994.15625 174.585938 993.132812 173.523438 C 993.003906 173.390625 992.875 173.257812 992.746094 173.125 C 992.617188 172.992188 992.488281 172.863281 992.359375 172.730469 C 992.230469 172.601562 992.097656 172.46875 991.96875 172.339844 L 991.773438 172.144531 L 991.570312 171.945312 C 991.433594 171.8125 991.296875 171.679688 991.167969 171.546875 L 990.972656 171.347656 L 990.777344 171.15625 C 990.519531 170.898438 990.257812 170.648438 989.992188 170.398438 C 989.460938 169.902344 988.914062 169.425781 988.351562 168.96875 C 987.785156 168.515625 987.207031 168.082031 986.613281 167.675781 C 985.421875 166.863281 984.164062 166.15625 982.847656 165.613281 C 981.53125 165.070312 980.152344 164.6875 978.757812 164.546875 C 978.058594 164.472656 977.359375 164.460938 976.664062 164.515625 C 976.320312 164.546875 975.972656 164.589844 975.632812 164.65625 C 975.296875 164.71875 974.960938 164.800781 974.632812 164.902344 C 973.976562 165.105469 973.347656 165.390625 972.78125 165.753906 C 972.214844 166.117188 971.710938 166.570312 971.332031 167.089844 C 970.953125 167.609375 970.707031 168.203125 970.679688 168.792969 C 970.664062 169.089844 970.703125 169.382812 970.796875 169.660156 C 970.886719 169.9375 971.035156 170.203125 971.226562 170.445312 C 971.414062 170.691406 971.652344 170.910156 971.914062 171.105469 C 972.046875 171.203125 972.183594 171.292969 972.328125 171.382812 C 972.472656 171.46875 972.617188 171.542969 972.785156 171.625 C 973.425781 171.941406 974.089844 172.210938 974.769531 172.417969 C 976.132812 172.832031 977.570312 172.988281 978.984375 172.839844 C 979.6875 172.765625 980.390625 172.621094 981.070312 172.40625 C 981.753906 172.195312 982.417969 171.914062 983.054688 171.582031 C 984.332031 170.914062 985.5 170.027344 986.550781 169.019531 C 987.605469 168.011719 988.539062 166.875 989.378906 165.667969 C 990.214844 164.457031 990.953125 163.175781 991.605469 161.851562 C 992.90625 159.199219 993.871094 156.378906 994.578125 153.5 C 994.667969 153.140625 994.75 152.777344 994.832031 152.417969 C 994.910156 152.054688 994.988281 151.691406 995.058594 151.328125 C 995.203125 150.597656 995.328125 149.867188 995.441406 149.132812 C 995.558594 148.402344 995.65625 147.664062 995.738281 146.925781 C 995.78125 146.558594 995.820312 146.1875 995.855469 145.820312 C 995.871094 145.636719 995.890625 145.445312 995.90625 145.265625 L 995.929688 144.996094 C 995.933594 144.902344 995.933594 144.808594 995.933594 144.71875 L 995.953125 143.605469 C 995.960938 143.238281 995.960938 142.863281 995.960938 142.492188 L 995.964844 141.933594 L 995.960938 141.375 L 995.953125 140.253906 C 995.929688 138.765625 995.882812 137.277344 995.808594 135.789062 C 995.734375 134.300781 995.628906 132.8125 995.503906 131.328125 C 995.371094 129.847656 995.214844 128.363281 995.03125 126.886719 C 994.664062 123.933594 994.183594 120.992188 993.605469 118.074219 C 993.027344 115.160156 992.347656 112.265625 991.570312 109.398438 C 991.476562 109.039062 991.375 108.683594 991.273438 108.328125 C 991.179688 107.96875 991.074219 107.613281 990.972656 107.253906 C 990.871094 106.898438 990.765625 106.542969 990.660156 106.1875 L 990.5 105.65625 L 990.335938 105.125 C 989.902344 103.707031 989.441406 102.296875 988.957031 100.898438 C 987.992188 98.097656 986.921875 95.335938 985.738281 92.625 C 985.148438 91.273438 984.523438 89.933594 983.859375 88.613281 C 983.199219 87.296875 982.507812 85.992188 981.769531 84.722656 L 981.207031 83.769531 L 980.628906 82.832031 C 980.234375 82.214844 979.835938 81.597656 979.417969 80.996094 C 979 80.394531 978.574219 79.800781 978.128906 79.222656 L 977.792969 78.792969 C 977.679688 78.648438 977.5625 78.507812 977.449219 78.367188 C 977.335938 78.226562 977.21875 78.085938 977.101562 77.949219 L 976.925781 77.742188 L 976.753906 77.542969 L 976.582031 77.347656 C 976.554688 77.3125 976.523438 77.285156 976.496094 77.253906 L 976.40625 77.167969 C 976.375 77.140625 976.347656 77.109375 976.316406 77.082031 L 976.21875 76.988281 C 976.15625 76.925781 976.089844 76.867188 976.027344 76.808594 C 975.765625 76.566406 975.5 76.335938 975.222656 76.117188 C 974.671875 75.675781 974.09375 75.28125 973.488281 74.9375 C 972.277344 74.246094 970.949219 73.78125 969.570312 73.597656 C 968.882812 73.5 968.183594 73.46875 967.484375 73.503906 C 966.78125 73.53125 966.082031 73.625 965.386719 73.769531 C 963.992188 74.054688 962.625 74.539062 961.3125 75.148438 C 959.992188 75.753906 958.722656 76.488281 957.492188 77.289062 C 956.265625 78.09375 955.078125 78.972656 953.921875 79.898438 C 951.613281 81.746094 949.441406 83.78125 947.316406 85.871094 Z M 946.832031 85.410156 " fill-opacity="1" fill-rule="nonzero"/></g><g clip-path="url(#b309820e50)"><path fill="#fff6f0" d="M 890.578125 204.714844 C 890.417969 204.820312 890.261719 204.929688 890.113281 205.046875 C 890.039062 205.105469 889.96875 205.167969 889.898438 205.226562 C 889.828125 205.289062 889.757812 205.351562 889.691406 205.417969 C 889.558594 205.546875 889.4375 205.6875 889.324219 205.832031 C 889.210938 205.976562 889.109375 206.128906 889.023438 206.289062 C 888.667969 206.917969 888.554688 207.65625 888.648438 208.386719 C 888.742188 209.121094 889.015625 209.84375 889.363281 210.527344 C 889.542969 210.867188 889.738281 211.203125 889.949219 211.527344 C 890.160156 211.855469 890.386719 212.171875 890.625 212.484375 C 891.097656 213.109375 891.613281 213.707031 892.148438 214.28125 C 892.6875 214.859375 893.25 215.417969 893.828125 215.960938 C 894.984375 217.042969 896.203125 218.066406 897.449219 219.050781 C 898.699219 220.035156 899.984375 220.976562 901.292969 221.886719 C 902.601562 222.796875 903.929688 223.675781 905.28125 224.507812 C 905.449219 224.613281 905.621094 224.714844 905.789062 224.816406 L 905.910156 224.886719 L 905.9375 224.902344 L 905.96875 224.921875 L 906.035156 224.953125 L 906.292969 225.09375 C 906.644531 225.28125 907.003906 225.472656 907.355469 225.664062 C 908.0625 226.050781 908.765625 226.445312 909.460938 226.851562 C 910.859375 227.65625 912.234375 228.507812 913.578125 229.410156 C 916.261719 231.210938 918.824219 233.230469 921.140625 235.523438 C 923.453125 237.8125 925.515625 240.382812 927.175781 243.210938 C 928.003906 244.621094 928.734375 246.09375 929.355469 247.609375 C 929.511719 247.988281 929.660156 248.371094 929.800781 248.757812 L 929.90625 249.046875 L 929.957031 249.191406 L 929.984375 249.261719 L 930.007812 249.34375 L 930.0625 249.503906 C 930.078125 249.558594 930.09375 249.613281 930.109375 249.667969 C 930.140625 249.773438 930.167969 249.886719 930.195312 250 C 930.242188 250.222656 930.285156 250.453125 930.304688 250.6875 C 930.320312 250.804688 930.320312 250.925781 930.328125 251.046875 C 930.328125 251.164062 930.328125 251.285156 930.320312 251.40625 C 930.296875 251.890625 930.1875 252.386719 929.988281 252.847656 C 929.789062 253.308594 929.496094 253.726562 929.152344 254.078125 C 928.808594 254.429688 928.417969 254.710938 928.003906 254.9375 C 927.59375 255.164062 927.160156 255.332031 926.726562 255.453125 C 926.289062 255.578125 925.84375 255.660156 925.402344 255.703125 C 924.511719 255.785156 923.621094 255.730469 922.757812 255.539062 C 921.894531 255.351562 921.050781 255.035156 920.277344 254.574219 L 920.246094 254.554688 L 920.214844 254.53125 C 919.535156 254.035156 918.941406 253.457031 918.414062 252.847656 C 917.886719 252.234375 917.417969 251.585938 916.992188 250.917969 C 916.144531 249.582031 915.453125 248.171875 914.863281 246.730469 C 914.273438 245.289062 913.785156 243.8125 913.390625 242.304688 C 913.195312 241.554688 913.023438 240.792969 912.878906 240.023438 C 912.808594 239.636719 912.746094 239.25 912.691406 238.859375 C 912.664062 238.664062 912.640625 238.460938 912.621094 238.273438 L 912.554688 237.707031 C 912.382812 236.179688 912.277344 234.652344 912.140625 233.160156 C 912 231.667969 911.820312 230.207031 911.476562 228.796875 C 911.308594 228.09375 911.09375 227.402344 910.84375 226.730469 C 910.78125 226.558594 910.714844 226.394531 910.648438 226.226562 C 910.578125 226.0625 910.511719 225.894531 910.433594 225.730469 C 910.359375 225.566406 910.289062 225.402344 910.207031 225.238281 L 910.089844 224.996094 L 909.96875 224.765625 C 909.890625 224.605469 909.800781 224.464844 909.714844 224.316406 C 909.671875 224.246094 909.621094 224.167969 909.574219 224.09375 C 909.523438 224.019531 909.476562 223.945312 909.429688 223.871094 C 909.324219 223.726562 909.230469 223.578125 909.121094 223.433594 L 908.964844 223.214844 L 908.800781 223 C 908.359375 222.429688 907.878906 221.882812 907.375 221.347656 C 906.367188 220.273438 905.265625 219.257812 904.15625 218.222656 C 903.042969 217.1875 901.914062 216.140625 900.855469 214.984375 C 900.722656 214.835938 900.589844 214.691406 900.460938 214.542969 C 900.332031 214.390625 900.199219 214.242188 900.074219 214.089844 L 899.886719 213.859375 L 899.707031 213.628906 L 899.351562 213.171875 C 899.230469 213.023438 899.117188 212.867188 899 212.710938 L 898.652344 212.246094 C 898.535156 212.09375 898.425781 211.933594 898.3125 211.777344 L 897.976562 211.304688 C 897.089844 210.039062 896.261719 208.730469 895.496094 207.390625 C 893.960938 204.710938 892.664062 201.898438 891.589844 199.011719 C 890.515625 196.121094 889.664062 193.15625 889.011719 190.152344 C 888.355469 187.152344 887.890625 184.113281 887.585938 181.0625 C 887.285156 178.011719 887.140625 174.949219 887.132812 171.886719 C 887.121094 165.769531 887.632812 159.664062 888.523438 153.628906 C 888.96875 150.613281 889.511719 147.613281 890.140625 144.628906 C 890.765625 141.644531 891.480469 138.683594 892.265625 135.742188 C 893.84375 129.859375 895.71875 124.058594 897.882812 118.371094 C 898.421875 116.949219 898.984375 115.535156 899.5625 114.128906 C 900.140625 112.71875 900.742188 111.320312 901.359375 109.929688 C 902.601562 107.152344 903.921875 104.40625 905.363281 101.722656 C 906.085938 100.378906 906.835938 99.054688 907.632812 97.753906 C 908.035156 97.101562 908.445312 96.457031 908.871094 95.824219 C 909.300781 95.1875 909.742188 94.5625 910.214844 93.953125 C 910.445312 93.648438 910.695312 93.347656 910.933594 93.058594 C 911.179688 92.765625 911.421875 92.472656 911.667969 92.183594 C 912.160156 91.601562 912.65625 91.023438 913.160156 90.453125 C 914.167969 89.3125 915.207031 88.195312 916.289062 87.121094 C 917.371094 86.042969 918.492188 85.007812 919.675781 84.035156 C 920.855469 83.0625 922.09375 82.15625 923.410156 81.355469 C 924.722656 80.5625 926.113281 79.875 927.582031 79.386719 C 929.046875 78.898438 930.597656 78.617188 932.15625 78.640625 C 932.933594 78.65625 933.714844 78.742188 934.476562 78.90625 C 935.238281 79.074219 935.980469 79.3125 936.695312 79.617188 C 937.410156 79.921875 938.097656 80.292969 938.75 80.710938 C 939.074219 80.917969 939.394531 81.140625 939.703125 81.371094 C 939.855469 81.488281 940.011719 81.605469 940.160156 81.726562 C 940.234375 81.785156 940.3125 81.847656 940.386719 81.910156 C 940.464844 81.976562 940.542969 82.035156 940.613281 82.109375 C 940.902344 82.382812 941.164062 82.664062 941.421875 82.953125 C 941.675781 83.246094 941.921875 83.542969 942.15625 83.84375 C 942.632812 84.449219 943.078125 85.074219 943.503906 85.707031 C 944.359375 86.972656 945.148438 88.28125 945.898438 89.605469 C 947.394531 92.257812 948.753906 94.984375 950.027344 97.742188 C 951.304688 100.503906 952.492188 103.304688 953.621094 106.125 C 955.863281 111.777344 957.851562 117.53125 959.542969 123.378906 C 960.386719 126.300781 961.15625 129.25 961.824219 132.222656 C 962.496094 135.195312 963.066406 138.191406 963.503906 141.214844 C 963.933594 144.242188 964.230469 147.292969 964.296875 150.363281 C 964.328125 151.902344 964.300781 153.441406 964.191406 154.984375 C 964.078125 156.523438 963.886719 158.066406 963.570312 159.597656 C 963.25 161.125 962.808594 162.640625 962.175781 164.101562 C 961.855469 164.828125 961.492188 165.542969 961.066406 166.226562 C 960.859375 166.566406 960.621094 166.90625 960.398438 167.21875 C 960.171875 167.53125 959.945312 167.84375 959.714844 168.148438 C 958.796875 169.375 957.859375 170.574219 956.910156 171.765625 C 955.960938 172.957031 955 174.136719 954.027344 175.308594 C 950.140625 179.992188 946.109375 184.558594 941.871094 188.945312 C 939.75 191.136719 937.574219 193.28125 935.308594 195.339844 C 934.175781 196.371094 933.019531 197.378906 931.832031 198.355469 C 930.644531 199.328125 929.421875 200.273438 928.144531 201.15625 C 926.863281 202.039062 925.535156 202.871094 924.09375 203.566406 C 923.371094 203.910156 922.621094 204.222656 921.824219 204.460938 C 921.421875 204.578125 921.011719 204.675781 920.585938 204.746094 C 920.160156 204.816406 919.714844 204.859375 919.261719 204.847656 C 918.804688 204.839844 918.332031 204.78125 917.867188 204.652344 C 917.402344 204.523438 916.941406 204.316406 916.53125 204.042969 C 916.324219 203.90625 916.132812 203.753906 915.953125 203.589844 L 915.820312 203.464844 C 915.777344 203.421875 915.734375 203.378906 915.695312 203.335938 C 915.65625 203.292969 915.609375 203.246094 915.574219 203.203125 L 915.464844 203.078125 C 915.175781 202.738281 914.914062 202.355469 914.695312 201.9375 C 914.585938 201.722656 914.488281 201.507812 914.410156 201.277344 C 914.332031 201.050781 914.261719 200.816406 914.21875 200.574219 C 914.171875 200.332031 914.144531 200.089844 914.132812 199.84375 C 914.125 199.601562 914.132812 199.359375 914.15625 199.121094 C 914.183594 198.882812 914.222656 198.648438 914.277344 198.421875 C 914.335938 198.195312 914.398438 197.972656 914.476562 197.757812 C 914.632812 197.332031 914.828125 196.929688 915.042969 196.554688 C 915.480469 195.804688 916 195.148438 916.554688 194.550781 C 917.105469 193.949219 917.695312 193.402344 918.304688 192.886719 C 919.519531 191.863281 920.804688 190.96875 922.121094 190.140625 C 923.4375 189.316406 924.789062 188.558594 926.15625 187.851562 C 927.527344 187.144531 928.917969 186.480469 930.320312 185.859375 C 931.726562 185.234375 933.144531 184.648438 934.578125 184.097656 C 936.011719 183.546875 937.457031 183.03125 938.921875 182.554688 C 940.382812 182.078125 941.859375 181.636719 943.359375 181.257812 C 944.863281 180.878906 946.375 180.5625 947.898438 180.296875 C 949.421875 180.035156 950.953125 179.828125 952.496094 179.6875 C 954.039062 179.546875 955.589844 179.472656 957.144531 179.476562 C 958.703125 179.480469 960.261719 179.566406 961.820312 179.757812 C 963.378906 179.949219 964.929688 180.253906 966.453125 180.699219 C 967.214844 180.921875 967.96875 181.183594 968.710938 181.484375 C 969.449219 181.789062 970.175781 182.132812 970.882812 182.523438 C 971.585938 182.914062 972.265625 183.355469 972.917969 183.835938 L 973.160156 184.023438 C 973.242188 184.085938 973.320312 184.148438 973.398438 184.207031 C 973.550781 184.332031 973.703125 184.453125 973.851562 184.582031 C 974.15625 184.832031 974.453125 185.089844 974.746094 185.347656 C 977.089844 187.441406 979.113281 189.878906 980.785156 192.515625 C 982.464844 195.152344 983.792969 197.992188 984.824219 200.917969 C 985.855469 203.847656 986.585938 206.867188 987.074219 209.917969 C 987.5625 212.964844 987.796875 216.046875 987.828125 219.125 C 987.851562 222.203125 987.667969 225.28125 987.28125 228.328125 C 986.890625 231.378906 986.304688 234.402344 985.496094 237.375 C 985.09375 238.855469 984.632812 240.328125 984.109375 241.777344 C 983.589844 243.226562 983.003906 244.65625 982.347656 246.054688 C 981.6875 247.453125 980.953125 248.816406 980.125 250.132812 C 979.292969 251.445312 978.363281 252.707031 977.304688 253.867188 C 976.773438 254.445312 976.207031 254.996094 975.597656 255.507812 C 974.992188 256.019531 974.34375 256.488281 973.652344 256.898438 C 972.960938 257.304688 972.21875 257.648438 971.441406 257.894531 C 971.054688 258.019531 970.65625 258.117188 970.253906 258.191406 C 970.203125 258.203125 970.152344 258.207031 970.105469 258.214844 L 969.671875 258.285156 C 969.480469 258.320312 969.289062 258.339844 969.09375 258.367188 C 967.550781 258.566406 965.988281 258.621094 964.4375 258.546875 C 962.886719 258.46875 961.347656 258.265625 959.832031 257.953125 C 958.320312 257.644531 956.832031 257.226562 955.375 256.730469 C 953.917969 256.230469 952.496094 255.648438 951.101562 255.007812 C 948.320312 253.71875 945.664062 252.183594 943.117188 250.5 C 940.570312 248.8125 938.132812 246.972656 935.785156 245.035156 C 931.089844 241.152344 926.738281 236.882812 922.617188 232.421875 C 920.554688 230.1875 918.554688 227.902344 916.597656 225.582031 C 915.617188 224.421875 914.648438 223.253906 913.683594 222.085938 L 912.234375 220.332031 C 911.992188 220.042969 911.746094 219.753906 911.5 219.464844 C 911.25 219.183594 911.003906 218.894531 910.734375 218.640625 L 910.878906 218.484375 C 911.164062 218.746094 911.417969 219.027344 911.675781 219.308594 C 911.933594 219.59375 912.183594 219.878906 912.429688 220.164062 C 912.929688 220.734375 913.421875 221.3125 913.917969 221.886719 C 914.90625 223.039062 915.894531 224.1875 916.894531 225.324219 C 918.894531 227.601562 920.933594 229.847656 923.027344 232.035156 C 927.210938 236.414062 931.609375 240.589844 936.324219 244.371094 C 938.683594 246.257812 941.121094 248.042969 943.65625 249.671875 C 946.191406 251.300781 948.824219 252.773438 951.5625 253.996094 C 952.933594 254.605469 954.328125 255.152344 955.75 255.621094 C 957.167969 256.082031 958.613281 256.46875 960.074219 256.75 C 961.535156 257.03125 963.011719 257.207031 964.492188 257.265625 C 965.972656 257.320312 967.453125 257.25 968.917969 257.042969 C 969.097656 257.015625 969.28125 256.992188 969.464844 256.960938 L 969.734375 256.914062 L 969.871094 256.890625 C 969.917969 256.882812 969.964844 256.875 970.003906 256.867188 C 970.347656 256.796875 970.683594 256.707031 971.015625 256.59375 C 971.679688 256.371094 972.320312 256.0625 972.929688 255.691406 C 973.539062 255.316406 974.113281 254.882812 974.660156 254.410156 C 975.207031 253.933594 975.71875 253.417969 976.207031 252.871094 C 977.175781 251.78125 978.035156 250.574219 978.808594 249.3125 C 979.578125 248.050781 980.261719 246.730469 980.878906 245.375 C 982.109375 242.664062 983.066406 239.820312 983.8125 236.925781 C 984.5625 234.03125 985.101562 231.078125 985.441406 228.105469 C 985.785156 225.132812 985.933594 222.140625 985.878906 219.152344 C 985.820312 216.164062 985.558594 213.183594 985.066406 210.246094 C 984.570312 207.308594 983.839844 204.414062 982.835938 201.628906 C 981.828125 198.84375 980.546875 196.160156 978.953125 193.6875 C 977.363281 191.214844 975.457031 188.953125 973.265625 187.011719 C 972.992188 186.769531 972.714844 186.535156 972.429688 186.300781 C 972.289062 186.183594 972.148438 186.070312 972.003906 185.957031 C 971.933594 185.898438 971.863281 185.84375 971.792969 185.792969 L 971.582031 185.628906 C 971.015625 185.210938 970.417969 184.828125 969.796875 184.484375 C 969.171875 184.144531 968.527344 183.839844 967.863281 183.566406 C 967.199219 183.300781 966.515625 183.066406 965.824219 182.863281 C 964.433594 182.460938 963 182.179688 961.546875 182.003906 C 960.089844 181.824219 958.617188 181.75 957.140625 181.746094 C 954.1875 181.746094 951.21875 182.039062 948.285156 182.546875 C 946.820312 182.796875 945.359375 183.109375 943.921875 183.46875 C 942.484375 183.835938 941.050781 184.261719 939.628906 184.722656 C 936.785156 185.652344 933.980469 186.726562 931.242188 187.933594 C 929.871094 188.539062 928.519531 189.175781 927.191406 189.859375 C 925.867188 190.539062 924.5625 191.261719 923.308594 192.039062 C 922.054688 192.820312 920.839844 193.660156 919.730469 194.585938 C 919.175781 195.046875 918.652344 195.535156 918.175781 196.046875 C 917.699219 196.558594 917.273438 197.097656 916.945312 197.660156 C 916.613281 198.21875 916.386719 198.800781 916.328125 199.351562 C 916.265625 199.90625 916.363281 200.433594 916.625 200.945312 C 916.757812 201.199219 916.921875 201.449219 917.121094 201.6875 L 917.195312 201.773438 C 917.222656 201.804688 917.246094 201.828125 917.269531 201.855469 C 917.292969 201.878906 917.316406 201.902344 917.339844 201.929688 L 917.414062 202 C 917.511719 202.09375 917.617188 202.175781 917.726562 202.25 C 917.949219 202.394531 918.1875 202.507812 918.453125 202.582031 C 918.714844 202.660156 919.003906 202.699219 919.304688 202.707031 C 919.910156 202.722656 920.566406 202.605469 921.222656 202.414062 C 921.878906 202.222656 922.539062 201.957031 923.183594 201.652344 C 924.480469 201.039062 925.738281 200.265625 926.960938 199.433594 C 928.183594 198.597656 929.371094 197.695312 930.535156 196.753906 C 931.695312 195.816406 932.832031 194.835938 933.949219 193.832031 C 936.1875 191.824219 938.347656 189.71875 940.460938 187.566406 C 942.570312 185.410156 944.632812 183.203125 946.65625 180.957031 C 948.679688 178.714844 950.664062 176.433594 952.609375 174.121094 C 953.585938 172.964844 954.550781 171.800781 955.5 170.628906 C 956.453125 169.457031 957.394531 168.273438 958.308594 167.082031 C 958.535156 166.785156 958.761719 166.484375 958.980469 166.183594 C 959.203125 165.882812 959.402344 165.601562 959.59375 165.296875 C 959.976562 164.699219 960.3125 164.0625 960.609375 163.402344 C 961.199219 162.085938 961.632812 160.683594 961.953125 159.246094 C 962.269531 157.808594 962.476562 156.335938 962.605469 154.855469 C 962.734375 153.375 962.785156 151.878906 962.777344 150.382812 C 962.757812 147.386719 962.515625 144.386719 962.140625 141.398438 C 961.761719 138.410156 961.246094 135.433594 960.632812 132.476562 C 960.019531 129.519531 959.304688 126.582031 958.515625 123.664062 C 957.71875 120.746094 956.851562 117.847656 955.90625 114.972656 C 955.433594 113.535156 954.945312 112.105469 954.4375 110.679688 C 953.929688 109.253906 953.402344 107.832031 952.859375 106.421875 C 951.773438 103.597656 950.609375 100.800781 949.367188 98.042969 C 948.742188 96.664062 948.097656 95.296875 947.421875 93.945312 C 946.75 92.589844 946.050781 91.25 945.3125 89.929688 C 944.574219 88.613281 943.800781 87.316406 942.964844 86.066406 C 942.546875 85.441406 942.109375 84.828125 941.648438 84.238281 C 941.421875 83.945312 941.183594 83.65625 940.9375 83.375 C 940.695312 83.097656 940.4375 82.824219 940.175781 82.574219 C 940.117188 82.511719 940.042969 82.453125 939.976562 82.398438 C 939.90625 82.339844 939.835938 82.28125 939.761719 82.222656 C 939.617188 82.105469 939.46875 81.992188 939.320312 81.878906 C 939.023438 81.65625 938.71875 81.445312 938.40625 81.246094 C 937.78125 80.84375 937.125 80.492188 936.445312 80.203125 C 935.765625 79.910156 935.0625 79.683594 934.339844 79.527344 C 933.621094 79.371094 932.882812 79.289062 932.144531 79.277344 C 930.667969 79.253906 929.191406 79.523438 927.785156 79.996094 C 926.375 80.46875 925.027344 81.136719 923.753906 81.917969 C 922.472656 82.699219 921.265625 83.597656 920.109375 84.558594 C 918.953125 85.519531 917.851562 86.546875 916.789062 87.617188 C 915.726562 88.6875 914.707031 89.800781 913.71875 90.941406 C 913.222656 91.511719 912.734375 92.085938 912.25 92.667969 C 912.007812 92.960938 911.769531 93.253906 911.53125 93.546875 C 911.289062 93.839844 911.058594 94.128906 910.835938 94.425781 C 910.382812 95.023438 909.953125 95.640625 909.539062 96.265625 C 909.125 96.894531 908.726562 97.53125 908.339844 98.179688 C 907.5625 99.46875 906.835938 100.792969 906.136719 102.128906 C 904.738281 104.804688 903.457031 107.546875 902.261719 110.324219 C 901.066406 113.101562 899.960938 115.917969 898.921875 118.757812 C 896.855469 124.441406 895.078125 130.226562 893.597656 136.085938 C 892.859375 139.015625 892.195312 141.964844 891.617188 144.925781 C 891.035156 147.890625 890.539062 150.867188 890.132812 153.855469 C 889.726562 156.84375 889.414062 159.847656 889.210938 162.851562 C 889.003906 165.855469 888.910156 168.867188 888.9375 171.875 C 888.96875 174.882812 889.128906 177.886719 889.441406 180.871094 C 889.753906 183.855469 890.21875 186.820312 890.863281 189.742188 C 891.507812 192.667969 892.335938 195.546875 893.378906 198.34375 C 894.417969 201.140625 895.671875 203.855469 897.148438 206.441406 C 897.886719 207.734375 898.679688 208.996094 899.535156 210.214844 L 899.855469 210.667969 C 899.964844 210.820312 900.070312 210.972656 900.183594 211.121094 L 900.515625 211.570312 C 900.628906 211.71875 900.738281 211.867188 900.855469 212.011719 L 901.195312 212.453125 L 901.367188 212.671875 L 901.539062 212.882812 C 901.652344 213.023438 901.773438 213.160156 901.886719 213.296875 C 902.007812 213.433594 902.128906 213.570312 902.25 213.707031 C 903.238281 214.789062 904.328125 215.8125 905.4375 216.84375 C 906.542969 217.878906 907.671875 218.925781 908.738281 220.066406 C 909.269531 220.636719 909.789062 221.230469 910.273438 221.863281 L 910.457031 222.101562 L 910.632812 222.34375 C 910.75 222.503906 910.859375 222.671875 910.976562 222.839844 C 911.03125 222.921875 911.085938 223.007812 911.140625 223.09375 C 911.195312 223.179688 911.25 223.257812 911.300781 223.351562 L 911.460938 223.621094 C 911.488281 223.667969 911.515625 223.710938 911.539062 223.757812 L 911.75 224.167969 L 911.878906 224.4375 C 911.964844 224.613281 912.046875 224.796875 912.128906 224.976562 C 912.210938 225.160156 912.285156 225.34375 912.363281 225.527344 C 912.433594 225.714844 912.507812 225.898438 912.578125 226.085938 C 912.847656 226.832031 913.082031 227.597656 913.261719 228.367188 C 913.632812 229.910156 913.8125 231.46875 913.949219 232.996094 C 914.085938 234.523438 914.183594 236.027344 914.34375 237.511719 L 914.40625 238.078125 C 914.425781 238.265625 914.445312 238.441406 914.46875 238.621094 C 914.515625 238.984375 914.570312 239.34375 914.636719 239.703125 C 914.765625 240.425781 914.921875 241.148438 915.105469 241.863281 C 915.472656 243.292969 915.929688 244.707031 916.480469 246.074219 C 917.027344 247.441406 917.671875 248.773438 918.441406 250 C 918.828125 250.613281 919.246094 251.203125 919.703125 251.742188 C 920.160156 252.28125 920.664062 252.773438 921.207031 253.175781 L 921.140625 253.132812 C 922.34375 253.859375 923.832031 254.1875 925.246094 254.066406 C 925.953125 254.003906 926.644531 253.824219 927.230469 253.511719 C 927.519531 253.351562 927.785156 253.164062 928.003906 252.945312 C 928.222656 252.722656 928.398438 252.476562 928.519531 252.203125 C 928.769531 251.65625 928.792969 251.003906 928.652344 250.335938 C 928.632812 250.253906 928.613281 250.171875 928.589844 250.085938 C 928.578125 250.046875 928.566406 250.003906 928.554688 249.960938 L 928.496094 249.773438 L 928.472656 249.707031 L 928.421875 249.566406 L 928.324219 249.289062 C 928.195312 248.921875 928.054688 248.554688 927.910156 248.191406 C 927.332031 246.738281 926.648438 245.328125 925.867188 243.96875 C 924.3125 241.246094 922.359375 238.753906 920.148438 236.511719 C 917.933594 234.265625 915.464844 232.265625 912.859375 230.464844 C 911.554688 229.5625 910.214844 228.707031 908.847656 227.886719 C 908.167969 227.480469 907.476562 227.078125 906.785156 226.6875 C 906.4375 226.492188 906.089844 226.296875 905.742188 226.101562 L 905.472656 225.953125 L 905.402344 225.917969 L 905.371094 225.898438 L 905.195312 225.792969 C 905.023438 225.6875 904.851562 225.578125 904.679688 225.46875 C 903.316406 224.605469 901.984375 223.699219 900.675781 222.757812 C 899.363281 221.820312 898.078125 220.847656 896.824219 219.832031 C 895.574219 218.8125 894.351562 217.753906 893.1875 216.628906 C 892.605469 216.066406 892.039062 215.484375 891.496094 214.878906 C 890.953125 214.277344 890.429688 213.648438 889.945312 212.988281 C 889.703125 212.660156 889.46875 212.320312 889.253906 211.96875 C 889.035156 211.621094 888.828125 211.257812 888.644531 210.886719 C 888.460938 210.511719 888.296875 210.125 888.167969 209.722656 C 888.101562 209.523438 888.042969 209.316406 888 209.109375 C 887.953125 208.902344 887.914062 208.6875 887.894531 208.472656 C 887.847656 208.042969 887.855469 207.601562 887.941406 207.167969 C 887.980469 206.953125 888.039062 206.738281 888.117188 206.53125 C 888.195312 206.324219 888.289062 206.125 888.402344 205.933594 C 888.511719 205.742188 888.636719 205.5625 888.773438 205.394531 C 888.910156 205.226562 889.054688 205.066406 889.210938 204.921875 C 889.289062 204.847656 889.371094 204.777344 889.449219 204.707031 C 889.53125 204.640625 889.613281 204.570312 889.699219 204.511719 C 889.867188 204.378906 890.042969 204.265625 890.21875 204.152344 Z M 890.578125 204.714844 " fill-opacity="1" fill-rule="nonzero"/></g><path fill="#fff6f0" d="M 855.667969 158.652344 C 856.257812 158.460938 856.898438 158.394531 857.53125 158.457031 C 858.167969 158.519531 858.789062 158.699219 859.375 158.957031 C 859.667969 159.085938 859.953125 159.234375 860.230469 159.394531 C 860.507812 159.554688 860.773438 159.730469 861.035156 159.910156 C 861.554688 160.28125 862.046875 160.6875 862.511719 161.117188 C 863.445312 161.976562 864.285156 162.921875 865.074219 163.898438 C 865.46875 164.386719 865.847656 164.886719 866.214844 165.390625 C 866.585938 165.898438 866.949219 166.40625 867.296875 166.925781 C 867.644531 167.445312 867.988281 167.964844 868.324219 168.488281 C 868.660156 169.015625 868.988281 169.542969 869.3125 170.074219 C 869.960938 171.136719 870.582031 172.210938 871.195312 173.289062 C 871.5 173.828125 871.800781 174.371094 872.097656 174.914062 L 872.988281 176.542969 C 873.578125 177.632812 874.152344 178.722656 874.730469 179.816406 L 876.449219 183.089844 C 877.015625 184.183594 877.589844 185.273438 878.164062 186.359375 C 878.734375 187.449219 879.316406 188.527344 879.898438 189.605469 C 880.191406 190.144531 880.488281 190.679688 880.785156 191.214844 C 881.082031 191.753906 881.378906 192.285156 881.683594 192.816406 C 882.898438 194.941406 884.167969 197.027344 885.558594 199.023438 C 886.953125 201.015625 888.472656 202.925781 890.289062 204.546875 L 889.964844 204.980469 C 888.902344 204.300781 887.929688 203.492188 887.019531 202.625 C 886.105469 201.757812 885.261719 200.828125 884.457031 199.867188 C 882.855469 197.9375 881.429688 195.878906 880.089844 193.78125 C 879.757812 193.253906 879.429688 192.726562 879.105469 192.195312 C 878.78125 191.664062 878.464844 191.128906 878.152344 190.589844 C 877.523438 189.519531 876.917969 188.4375 876.320312 187.351562 C 875.722656 186.269531 875.140625 185.175781 874.5625 184.082031 C 873.988281 182.988281 873.417969 181.890625 872.851562 180.796875 L 871.164062 177.503906 L 870.324219 175.863281 L 869.476562 174.222656 C 868.914062 173.132812 868.335938 172.050781 867.753906 170.972656 C 867.464844 170.433594 867.167969 169.898438 866.867188 169.367188 C 866.570312 168.832031 866.265625 168.300781 865.957031 167.777344 C 865.644531 167.25 865.335938 166.726562 865.011719 166.210938 C 864.691406 165.695312 864.359375 165.1875 864.019531 164.683594 C 863.679688 164.179688 863.324219 163.6875 862.964844 163.203125 C 862.601562 162.71875 862.21875 162.253906 861.820312 161.800781 C 861.425781 161.347656 861 160.921875 860.558594 160.519531 C 860.335938 160.320312 860.105469 160.128906 859.867188 159.949219 C 859.628906 159.769531 859.382812 159.601562 859.125 159.445312 C 858.871094 159.292969 858.605469 159.15625 858.332031 159.039062 C 858.058594 158.921875 857.777344 158.820312 857.484375 158.75 C 856.898438 158.601562 856.28125 158.570312 855.667969 158.652344 Z M 855.667969 158.652344 " fill-opacity="1" fill-rule="nonzero"/><g clip-path="url(#1e52397872)"><path fill="#fff6f0" d="M 843.421875 170.46875 C 843.9375 170.128906 844.535156 169.890625 845.160156 169.78125 C 845.789062 169.667969 846.4375 169.675781 847.074219 169.765625 C 847.390625 169.8125 847.703125 169.875 848.011719 169.953125 C 848.320312 170.035156 848.628906 170.132812 848.929688 170.238281 C 849.527344 170.453125 850.109375 170.710938 850.675781 171 C 851.804688 171.574219 852.867188 172.257812 853.890625 172.988281 C 854.402344 173.351562 854.902344 173.730469 855.394531 174.117188 C 855.882812 174.503906 856.371094 174.898438 856.847656 175.304688 C 857.324219 175.707031 857.792969 176.117188 858.257812 176.53125 C 858.722656 176.945312 859.179688 177.367188 859.636719 177.792969 C 860.546875 178.636719 861.433594 179.507812 862.316406 180.378906 C 862.757812 180.816406 863.191406 181.257812 863.625 181.699219 L 864.921875 183.027344 C 865.78125 183.917969 866.632812 184.8125 867.484375 185.707031 L 870.019531 188.398438 C 870.863281 189.296875 871.707031 190.191406 872.554688 191.082031 C 873.398438 191.976562 874.25 192.855469 875.101562 193.738281 C 875.53125 194.179688 875.960938 194.613281 876.390625 195.050781 C 876.820312 195.484375 877.253906 195.917969 877.691406 196.347656 C 879.433594 198.0625 881.21875 199.730469 883.097656 201.273438 C 884.976562 202.8125 886.957031 204.238281 889.144531 205.304688 L 888.925781 205.859375 C 887.722656 205.488281 886.566406 204.96875 885.453125 204.378906 C 884.34375 203.789062 883.277344 203.117188 882.246094 202.40625 C 880.183594 200.976562 878.253906 199.378906 876.402344 197.714844 C 875.941406 197.300781 875.480469 196.878906 875.027344 196.453125 C 874.574219 196.027344 874.125 195.597656 873.675781 195.167969 C 872.78125 194.304688 871.910156 193.425781 871.039062 192.542969 C 870.171875 191.65625 869.320312 190.757812 868.46875 189.863281 C 867.621094 188.964844 866.777344 188.0625 865.9375 187.15625 L 863.425781 184.441406 L 862.171875 183.085938 L 860.917969 181.738281 C 860.078125 180.839844 859.234375 179.953125 858.382812 179.070312 C 857.957031 178.628906 857.527344 178.195312 857.09375 177.761719 C 856.664062 177.328125 856.226562 176.898438 855.789062 176.476562 C 855.347656 176.054688 854.90625 175.632812 854.457031 175.222656 C 854.007812 174.8125 853.550781 174.414062 853.085938 174.019531 C 852.625 173.625 852.152344 173.246094 851.671875 172.878906 C 851.191406 172.511719 850.699219 172.164062 850.191406 171.835938 C 849.6875 171.507812 849.167969 171.210938 848.628906 170.941406 C 848.363281 170.8125 848.089844 170.691406 847.8125 170.582031 C 847.53125 170.472656 847.25 170.375 846.960938 170.296875 C 846.675781 170.21875 846.382812 170.160156 846.085938 170.117188 C 845.792969 170.078125 845.492188 170.058594 845.191406 170.070312 C 844.59375 170.089844 843.992188 170.222656 843.421875 170.46875 Z M 843.421875 170.46875 " fill-opacity="1" fill-rule="nonzero"/></g><g clip-path="url(#e3414f222b)"><path fill="#a68cb6" d="M 523.753906 1.417969 C 523.691406 1.371094 523.625 1.363281 523.550781 1.394531 C 523.347656 1.214844 523.507812 0.8125 523.132812 0.742188 C 522.539062 0.148438 521.933594 0.371094 521.335938 0.726562 C 519.660156 1.71875 518.183594 2.96875 516.777344 4.304688 C 511.757812 9.101562 507.96875 14.726562 505.136719 21.082031 C 500.191406 32.171875 499.507812 43.621094 501.921875 55.359375 C 503.042969 60.800781 505.089844 65.945312 507.378906 70.992188 C 508.722656 73.960938 510.242188 76.835938 511.691406 79.75 C 511.789062 79.832031 511.886719 79.910156 511.984375 79.992188 C 511.992188 80.136719 512.039062 80.296875 511.988281 80.414062 C 511.988281 80.414062 511.988281 80.414062 511.984375 80.417969 C 511.941406 80.511719 511.8125 80.449219 511.757812 80.34375 C 510.613281 79.777344 509.625 78.988281 508.679688 78.148438 C 508.03125 77.574219 507.363281 77.0625 506.542969 76.761719 C 505.160156 75.511719 503.675781 75.46875 502.386719 76.582031 C 503.726562 80.050781 506.476562 82.167969 509.453125 84.09375 C 510.558594 84.808594 511.613281 85.597656 512.679688 86.371094 C 515.230469 88.222656 514.964844 87.8125 517.320312 86.785156 C 517.84375 86.558594 518.308594 86.210938 518.734375 85.816406 C 518.890625 85.675781 519.023438 85.527344 519.023438 85.300781 C 519.609375 85.007812 519.617188 84.457031 519.597656 83.921875 C 519.535156 82.328125 519.457031 80.738281 519.386719 79.144531 C 519.570312 78.808594 519.515625 78.460938 519.441406 78.117188 C 519.636719 77.789062 519.578125 77.4375 519.53125 77.089844 C 519.707031 76.882812 519.640625 76.621094 519.675781 76.382812 C 520.128906 73.144531 520.941406 70.007812 522.285156 67.015625 C 522.386719 66.792969 522.46875 66.558594 522.558594 66.328125 C 522.671875 66.058594 522.800781 65.75 522.542969 65.535156 C 522.351562 65.371094 522 65.417969 521.839844 65.5625 C 521.128906 66.195312 520.140625 66.289062 519.398438 66.84375 C 519.070312 67.089844 518.867188 67.449219 518.667969 67.820312 C 517.113281 70.660156 516.105469 73.703125 515.40625 76.851562 C 515.34375 77.132812 515.324219 77.433594 515.203125 77.691406 C 515.066406 77.992188 514.8125 77.90625 514.585938 77.753906 C 514.625 77.429688 514.496094 77.195312 514.210938 77.046875 C 514.1875 76.742188 514.140625 76.445312 513.824219 76.292969 C 513.859375 76.21875 513.835938 76.167969 513.757812 76.144531 C 513.746094 75.855469 513.6875 75.585938 513.402344 75.429688 C 513.347656 75.234375 513.324219 75.027344 513.238281 74.84375 C 512.316406 72.832031 511.359375 70.835938 510.460938 68.8125 C 509.640625 66.976562 508.882812 65.121094 508.101562 63.269531 C 507.953125 62.757812 507.828125 62.238281 507.660156 61.734375 C 506.066406 56.820312 505.085938 51.789062 504.863281 46.621094 C 504.785156 44.777344 504.765625 42.929688 504.71875 41.085938 C 504.914062 40.734375 504.835938 40.375 504.765625 40.011719 C 504.960938 39.683594 504.890625 39.339844 504.824219 38.992188 C 505.035156 38.691406 504.945312 38.363281 504.914062 38.039062 C 505.070312 37.851562 505.0625 37.648438 504.984375 37.433594 C 505.039062 37.363281 505.042969 37.289062 504.992188 37.214844 C 505.164062 37.007812 505.105469 36.746094 505.144531 36.511719 C 505.34375 35.347656 505.332031 34.152344 505.675781 33.011719 C 505.582031 32.910156 505.53125 32.574219 505.359375 32.984375 C 505.242188 33.257812 505.160156 33.277344 505.089844 33.199219 C 505.03125 33.136719 504.984375 33 504.933594 32.902344 C 505.679688 29.246094 506.859375 25.722656 508.269531 22.273438 C 508.429688 21.964844 508.589844 21.652344 508.75 21.347656 C 509.707031 19.507812 510.667969 17.664062 511.621094 15.828125 C 511.699219 15.789062 511.753906 15.738281 511.78125 15.671875 C 511.800781 15.625 511.8125 15.578125 511.8125 15.523438 C 511.9375 15.464844 512 15.363281 511.996094 15.222656 C 512.125 15.167969 512.183594 15.066406 512.179688 14.925781 C 512.3125 14.875 512.371094 14.773438 512.363281 14.628906 C 512.5 14.578125 512.5625 14.476562 512.554688 14.335938 C 512.691406 14.285156 512.753906 14.1875 512.746094 14.042969 L 512.746094 14.039062 C 512.882812 13.992188 512.945312 13.894531 512.9375 13.753906 L 512.941406 13.75 C 513.007812 13.660156 513.074219 13.566406 513.132812 13.46875 L 513.140625 13.457031 C 513.273438 13.410156 513.339844 13.320312 513.332031 13.175781 L 513.339844 13.167969 C 513.472656 13.121094 513.539062 13.027344 513.53125 12.882812 L 513.539062 12.875 C 513.539062 12.875 513.542969 12.871094 513.542969 12.871094 C 513.542969 12.871094 513.539062 12.875 513.539062 12.875 C 513.675781 12.832031 513.742188 12.738281 513.734375 12.59375 L 513.738281 12.585938 C 513.875 12.542969 513.941406 12.449219 513.933594 12.304688 L 513.9375 12.300781 C 514.074219 12.257812 514.144531 12.160156 514.140625 12.019531 C 514.820312 11.179688 515.496094 10.34375 516.171875 9.507812 C 516.390625 8.960938 516.832031 8.585938 517.207031 8.164062 C 517.273438 8.179688 517.324219 8.207031 517.371094 8.246094 C 517.441406 8.300781 517.492188 8.371094 517.519531 8.472656 C 517.839844 8.183594 518.179688 7.917969 518.347656 7.503906 C 518.386719 7.371094 518.441406 7.25 518.546875 7.15625 C 518.480469 7.269531 518.410156 7.382812 518.347656 7.503906 C 518.46875 7.429688 518.570312 7.347656 518.546875 7.195312 C 518.761719 7.15625 518.890625 7.019531 518.96875 6.824219 C 519.105469 6.800781 519.191406 6.730469 519.195312 6.582031 C 519.328125 6.523438 519.429688 6.445312 519.445312 6.292969 C 519.515625 6.273438 519.566406 6.234375 519.597656 6.164062 C 519.957031 5.9375 520.25 5.648438 520.476562 5.289062 C 520.722656 5.117188 520.972656 4.949219 521.109375 4.664062 C 521.304688 4.613281 521.410156 4.453125 521.523438 4.304688 C 522.492188 3.625 523.328125 2.769531 524.476562 2.25 C 524.136719 1.964844 524.195312 1.488281 523.753906 1.417969 Z M 513.515625 76.1875 C 513.515625 76.183594 513.515625 76.183594 513.515625 76.183594 C 513.511719 76.183594 513.511719 76.183594 513.511719 76.183594 C 513.511719 76.183594 513.515625 76.179688 513.515625 76.179688 C 513.515625 76.179688 513.515625 76.183594 513.515625 76.183594 C 513.519531 76.183594 513.523438 76.183594 513.527344 76.179688 C 513.523438 76.183594 513.519531 76.183594 513.515625 76.1875 Z M 513.140625 12.253906 C 513.121094 12.273438 513.101562 12.292969 513.082031 12.3125 C 513.085938 12.304688 513.085938 12.300781 513.089844 12.292969 C 513.105469 12.273438 513.117188 12.253906 513.132812 12.234375 C 513.132812 12.238281 513.136719 12.242188 513.140625 12.253906 Z M 511.621094 15.804688 C 511.617188 15.804688 511.617188 15.804688 511.617188 15.804688 C 511.609375 15.796875 511.597656 15.792969 511.59375 15.785156 L 511.570312 15.765625 L 511.617188 15.804688 C 511.621094 15.804688 511.621094 15.800781 511.625 15.800781 C 511.621094 15.800781 511.621094 15.804688 511.621094 15.804688 Z M 513.09375 12.132812 C 513.105469 12.164062 513.121094 12.199219 513.128906 12.226562 C 513.117188 12.246094 513.105469 12.265625 513.089844 12.285156 C 513.113281 12.238281 513.117188 12.1875 513.09375 12.132812 Z M 512.996094 12.414062 C 512.980469 12.4375 512.964844 12.460938 512.945312 12.480469 C 512.945312 12.480469 512.945312 12.480469 512.941406 12.480469 C 512.960938 12.460938 512.980469 12.4375 512.996094 12.414062 Z M 521.605469 2.042969 C 521.605469 2.039062 521.609375 2.035156 521.609375 2.03125 C 521.609375 2.03125 521.613281 2.027344 521.613281 2.027344 C 521.613281 2.027344 521.617188 2.023438 521.621094 2.023438 C 521.617188 2.03125 521.613281 2.035156 521.605469 2.042969 Z M 521.175781 2.34375 C 521.167969 2.34375 521.164062 2.34375 521.160156 2.351562 C 521.167969 2.351562 521.171875 2.34375 521.175781 2.34375 Z M 518.570312 6.941406 C 518.558594 6.917969 518.546875 6.898438 518.527344 6.875 C 518.542969 6.871094 518.558594 6.867188 518.574219 6.863281 C 518.570312 6.890625 518.570312 6.917969 518.570312 6.941406 Z M 519.292969 6.355469 C 519.316406 6.320312 519.355469 6.292969 519.40625 6.277344 C 519.40625 6.277344 519.40625 6.277344 519.40625 6.28125 C 519.359375 6.300781 519.320312 6.324219 519.292969 6.355469 Z M 519.292969 6.355469 " fill-opacity="1" fill-rule="nonzero"/></g><path fill="#a68cb6" d="M 513.140625 13.449219 C 513.074219 13.542969 513.011719 13.636719 512.945312 13.730469 C 513.085938 13.683594 513.148438 13.589844 513.140625 13.449219 Z M 513.140625 13.449219 " fill-opacity="1" fill-rule="nonzero"/></svg>