<svg xmlns="http://www.w3.org/2000/svg" xmlns:xlink="http://www.w3.org/1999/xlink" width="1366" zoomAndPan="magnify" viewBox="0 0 1024.5 330.75" height="441" preserveAspectRatio="xMidYMid meet" version="1.0"><defs><clipPath id="6249826595"><path d="M 0.136719 81.765625 L 1021 81.765625 L 1021 318 L 0.136719 318 Z M 0.136719 81.765625 " clip-rule="nonzero"/></clipPath><clipPath id="a00b00a77f"><path d="M 1007.464844 81.765625 L -11.367188 81.765625 C -14.945312 81.765625 -18.375 83.1875 -20.90625 85.71875 C -23.433594 88.25 -24.855469 91.679688 -24.855469 95.257812 L -24.855469 293.058594 C 30.773438 311.355469 208.78125 341.601562 475.796875 293.058594 C 742.816406 249.144531 950.492188 274.761719 1020.957031 293.058594 L 1020.957031 95.257812 C 1020.957031 91.679688 1019.535156 88.25 1017.003906 85.71875 C 1014.476562 83.1875 1011.042969 81.765625 1007.464844 81.765625 Z M 1007.464844 81.765625 " clip-rule="nonzero"/></clipPath><clipPath id="88813a8aa1"><path d="M 0.136719 0.765625 L 1021 0.765625 L 1021 236.519531 L 0.136719 236.519531 Z M 0.136719 0.765625 " clip-rule="nonzero"/></clipPath><clipPath id="1157581ee9"><path d="M 1007.464844 0.765625 L -11.367188 0.765625 C -14.945312 0.765625 -18.375 2.1875 -20.90625 4.71875 C -23.433594 7.25 -24.855469 10.679688 -24.855469 14.257812 L -24.855469 212.058594 C 30.773438 230.355469 208.78125 260.601562 475.796875 212.058594 C 742.816406 168.144531 950.492188 193.761719 1020.957031 212.058594 L 1020.957031 14.257812 C 1020.957031 10.679688 1019.535156 7.25 1017.003906 4.71875 C 1014.476562 2.1875 1011.042969 0.765625 1007.464844 0.765625 Z M 1007.464844 0.765625 " clip-rule="nonzero"/></clipPath><clipPath id="04d67be454"><rect x="0" width="1021" y="0" height="237"/></clipPath><clipPath id="300ccd5f22"><path d="M 0.136719 15 L 1023.863281 15 L 1023.863281 219 L 0.136719 219 Z M 0.136719 15 " clip-rule="nonzero"/></clipPath><clipPath id="586f5ab59e"><path d="M -8.460938 218.597656 L 1010.371094 218.597656 C 1013.949219 218.597656 1017.382812 217.175781 1019.910156 214.644531 C 1022.441406 212.117188 1023.863281 208.683594 1023.863281 205.105469 L 1023.863281 36.785156 C 968.234375 21.042969 790.222656 -8.375 523.207031 36.785156 C 256.191406 74.574219 48.511719 52.53125 -21.949219 36.785156 L -21.949219 205.105469 C -21.949219 208.683594 -20.527344 212.117188 -18 214.644531 C -15.46875 217.175781 -12.039062 218.597656 -8.460938 218.597656 Z M -8.460938 218.597656 " clip-rule="nonzero"/></clipPath><clipPath id="5aebd0c23a"><path d="M 0.136719 0.828125 L 1023.863281 0.828125 L 1023.863281 203.714844 L 0.136719 203.714844 Z M 0.136719 0.828125 " clip-rule="nonzero"/></clipPath><clipPath id="e24ffb7122"><path d="M -8.460938 203.597656 L 1010.371094 203.597656 C 1013.949219 203.597656 1017.382812 202.175781 1019.910156 199.644531 C 1022.441406 197.117188 1023.863281 193.683594 1023.863281 190.105469 L 1023.863281 21.785156 C 968.234375 6.042969 790.222656 -23.375 523.207031 21.785156 C 256.191406 59.574219 48.511719 37.53125 -21.949219 21.785156 L -21.949219 190.105469 C -21.949219 193.683594 -20.527344 197.117188 -18 199.644531 C -15.46875 202.175781 -12.039062 203.597656 -8.460938 203.597656 Z M -8.460938 203.597656 " clip-rule="nonzero"/></clipPath><clipPath id="c2e28ddd6d"><rect x="0" width="1024" y="0" height="204"/></clipPath><clipPath id="991ba3ffa3"><path d="M 92 71.871094 L 158.867188 71.871094 L 158.867188 255 L 92 255 Z M 92 71.871094 " clip-rule="nonzero"/></clipPath><clipPath id="4ae2774d04"><path d="M 32 78 L 134 78 L 134 258.480469 L 32 258.480469 Z M 32 78 " clip-rule="nonzero"/></clipPath><clipPath id="db88392773"><path d="M 0.136719 158 L 36 158 L 36 205 L 0.136719 205 Z M 0.136719 158 " clip-rule="nonzero"/></clipPath><clipPath id="e29de0c4ef"><path d="M 0.136719 169 L 35 169 L 35 206 L 0.136719 206 Z M 0.136719 169 " clip-rule="nonzero"/></clipPath></defs><g clip-path="url(#6249826595)"><g clip-path="url(#a00b00a77f)"><g transform="matrix(1, 0, 0, 1, 0, 81)"><g clip-path="url(#04d67be454)"><g clip-path="url(#88813a8aa1)"><g clip-path="url(#1157581ee9)"><path fill="#fff6f0" d="M -24.855469 0.765625 L 1021.257812 0.765625 L 1021.257812 236.304688 L -24.855469 236.304688 Z M -24.855469 0.765625 " fill-opacity="1" fill-rule="nonzero"/></g></g></g></g></g></g><g clip-path="url(#300ccd5f22)"><g clip-path="url(#586f5ab59e)"><g transform="matrix(1, 0, 0, 1, 0, 15)"><g clip-path="url(#c2e28ddd6d)"><g clip-path="url(#5aebd0c23a)"><g clip-path="url(#e24ffb7122)"><path fill="#fff6f0" d="M 1023.863281 203.597656 L -21.964844 203.597656 L -21.964844 0.921875 L 1023.863281 0.921875 Z M 1023.863281 203.597656 " fill-opacity="1" fill-rule="nonzero"/></g></g></g></g></g></g><g clip-path="url(#991ba3ffa3)"><path fill="#e89ca3" d="M 92.160156 85.410156 C 94.167969 83.1875 96.269531 81.035156 98.546875 79.054688 C 99.683594 78.0625 100.867188 77.117188 102.109375 76.242188 C 103.351562 75.367188 104.652344 74.566406 106.027344 73.878906 C 107.40625 73.195312 108.855469 72.628906 110.382812 72.277344 C 111.148438 72.101562 111.929688 71.980469 112.71875 71.925781 C 113.507812 71.871094 114.308594 71.886719 115.101562 71.980469 C 115.898438 72.070312 116.683594 72.246094 117.445312 72.492188 C 118.207031 72.738281 118.945312 73.054688 119.644531 73.4375 C 120.34375 73.816406 121.003906 74.257812 121.628906 74.742188 C 121.941406 74.984375 122.246094 75.238281 122.535156 75.5 C 122.609375 75.5625 122.683594 75.628906 122.753906 75.695312 L 122.863281 75.796875 C 122.898438 75.828125 122.9375 75.867188 122.976562 75.902344 L 123.085938 76.011719 C 123.125 76.046875 123.164062 76.082031 123.195312 76.121094 L 123.394531 76.34375 L 123.597656 76.5625 L 123.785156 76.78125 C 123.910156 76.925781 124.039062 77.070312 124.160156 77.21875 C 124.28125 77.363281 124.40625 77.511719 124.527344 77.660156 L 124.886719 78.109375 C 125.355469 78.710938 125.8125 79.320312 126.253906 79.941406 C 126.691406 80.566406 127.113281 81.195312 127.527344 81.832031 L 127.828125 82.316406 L 127.980469 82.554688 L 128.128906 82.796875 L 128.425781 83.285156 L 128.714844 83.773438 C 129.484375 85.078125 130.203125 86.410156 130.886719 87.757812 C 131.570312 89.109375 132.207031 90.476562 132.8125 91.859375 C 135.230469 97.394531 137.058594 103.160156 138.421875 109.015625 L 138.671875 110.113281 L 138.910156 111.214844 L 139.140625 112.320312 C 139.214844 112.6875 139.285156 113.054688 139.355469 113.425781 C 139.640625 114.898438 139.898438 116.378906 140.128906 117.863281 C 140.363281 119.34375 140.566406 120.832031 140.75 122.320312 C 140.933594 123.808594 141.09375 125.296875 141.230469 126.789062 C 141.367188 128.28125 141.492188 129.777344 141.585938 131.269531 C 141.679688 132.765625 141.757812 134.261719 141.8125 135.757812 C 141.867188 137.253906 141.902344 138.75 141.917969 140.246094 L 141.925781 141.367188 L 141.929688 141.929688 L 141.925781 142.492188 C 141.921875 142.867188 141.925781 143.238281 141.917969 143.617188 L 141.90625 144.746094 C 141.902344 144.839844 141.90625 144.933594 141.898438 145.027344 L 141.875 145.3125 C 141.859375 145.507812 141.84375 145.6875 141.824219 145.878906 C 141.789062 146.25 141.753906 146.625 141.714844 146.996094 C 141.632812 147.746094 141.535156 148.488281 141.425781 149.230469 C 141.203125 150.71875 140.917969 152.195312 140.574219 153.660156 C 140.226562 155.125 139.816406 156.574219 139.328125 157.996094 C 138.839844 159.421875 138.28125 160.824219 137.628906 162.1875 C 136.976562 163.550781 136.242188 164.878906 135.394531 166.136719 C 134.546875 167.394531 133.59375 168.589844 132.507812 169.667969 C 131.421875 170.742188 130.203125 171.699219 128.84375 172.445312 C 128.164062 172.816406 127.453125 173.132812 126.710938 173.378906 C 125.972656 173.625 125.207031 173.800781 124.429688 173.894531 C 123.652344 173.992188 122.863281 174.007812 122.082031 173.941406 C 121.300781 173.878906 120.527344 173.734375 119.777344 173.523438 C 119.023438 173.3125 118.292969 173.035156 117.589844 172.703125 C 117.417969 172.621094 117.230469 172.53125 117.050781 172.429688 C 116.871094 172.332031 116.695312 172.222656 116.523438 172.101562 C 116.179688 171.859375 115.855469 171.574219 115.578125 171.238281 C 115.296875 170.902344 115.0625 170.511719 114.910156 170.085938 C 114.753906 169.660156 114.679688 169.199219 114.691406 168.75 C 114.703125 168.296875 114.792969 167.855469 114.941406 167.441406 C 115.089844 167.03125 115.296875 166.648438 115.535156 166.296875 C 116.023438 165.597656 116.640625 165.023438 117.316406 164.5625 C 117.996094 164.101562 118.734375 163.75 119.5 163.492188 C 119.882812 163.363281 120.269531 163.257812 120.664062 163.171875 C 121.054688 163.085938 121.449219 163.027344 121.847656 162.984375 C 122.640625 162.898438 123.441406 162.894531 124.230469 162.957031 C 125.808594 163.085938 127.347656 163.476562 128.804688 164.046875 C 130.257812 164.613281 131.636719 165.355469 132.925781 166.203125 C 133.574219 166.628906 134.195312 167.082031 134.804688 167.554688 C 135.40625 168.03125 135.996094 168.527344 136.566406 169.039062 C 136.847656 169.300781 137.128906 169.558594 137.402344 169.828125 L 137.609375 170.027344 L 137.808594 170.222656 C 137.9375 170.355469 138.074219 170.480469 138.207031 170.609375 L 138.40625 170.796875 L 138.613281 170.996094 C 138.746094 171.125 138.882812 171.257812 139.019531 171.390625 C 139.152344 171.519531 139.289062 171.652344 139.421875 171.785156 C 139.558594 171.917969 139.691406 172.050781 139.824219 172.1875 C 140.890625 173.257812 141.925781 174.363281 142.925781 175.5 C 144.925781 177.769531 146.792969 180.167969 148.488281 182.683594 C 151.882812 187.714844 154.589844 193.234375 156.382812 199.054688 C 157.28125 201.964844 157.957031 204.941406 158.394531 207.957031 C 158.832031 210.96875 159.035156 214.015625 159 217.054688 C 158.925781 223.136719 157.917969 229.214844 155.898438 234.949219 C 155.390625 236.386719 154.820312 237.796875 154.179688 239.175781 C 153.863281 239.867188 153.523438 240.546875 153.171875 241.222656 C 152.816406 241.894531 152.441406 242.558594 152.046875 243.210938 C 151.265625 244.515625 150.402344 245.777344 149.449219 246.96875 C 148.976562 247.566406 148.476562 248.148438 147.957031 248.707031 C 147.433594 249.265625 146.886719 249.800781 146.3125 250.3125 C 145.164062 251.328125 143.90625 252.234375 142.523438 252.929688 C 141.832031 253.277344 141.109375 253.570312 140.359375 253.785156 C 139.988281 253.890625 139.609375 253.980469 139.222656 254.046875 C 139.03125 254.078125 138.839844 254.105469 138.644531 254.125 C 138.546875 254.136719 138.449219 254.144531 138.351562 254.152344 L 138.070312 254.171875 C 136.554688 254.265625 135.035156 254.214844 133.539062 254.035156 C 132.789062 253.945312 132.046875 253.824219 131.308594 253.671875 C 130.574219 253.519531 129.84375 253.339844 129.125 253.128906 L 129.175781 252.921875 C 129.902344 253.078125 130.636719 253.207031 131.371094 253.308594 C 132.105469 253.410156 132.84375 253.484375 133.582031 253.527344 C 135.058594 253.617188 136.539062 253.578125 138 253.410156 L 138.273438 253.378906 C 138.363281 253.367188 138.453125 253.355469 138.539062 253.339844 C 138.714844 253.3125 138.890625 253.277344 139.066406 253.238281 C 139.414062 253.164062 139.761719 253.066406 140.097656 252.949219 C 140.777344 252.71875 141.433594 252.414062 142.0625 252.0625 C 143.320312 251.355469 144.464844 250.449219 145.511719 249.445312 C 146.035156 248.941406 146.535156 248.410156 147.007812 247.855469 C 147.484375 247.304688 147.941406 246.734375 148.375 246.144531 C 148.808594 245.558594 149.21875 244.953125 149.613281 244.335938 C 150.007812 243.71875 150.378906 243.089844 150.738281 242.449219 C 151.09375 241.808594 151.429688 241.160156 151.75 240.5 C 152.074219 239.84375 152.378906 239.175781 152.664062 238.5 C 153.242188 237.152344 153.75 235.773438 154.203125 234.378906 C 154.65625 232.984375 155.042969 231.566406 155.378906 230.136719 C 155.710938 228.707031 155.984375 227.265625 156.203125 225.816406 C 156.640625 222.914062 156.847656 219.980469 156.839844 217.046875 C 156.835938 215.582031 156.777344 214.117188 156.664062 212.65625 C 156.550781 211.191406 156.382812 209.738281 156.160156 208.289062 C 155.71875 205.390625 155.066406 202.53125 154.203125 199.726562 C 153.34375 196.925781 152.285156 194.1875 151.03125 191.53125 C 150.71875 190.871094 150.394531 190.210938 150.058594 189.558594 C 149.722656 188.90625 149.375 188.261719 149.015625 187.621094 C 148.300781 186.339844 147.535156 185.082031 146.730469 183.851562 C 145.125 181.390625 143.351562 179.035156 141.433594 176.796875 C 140.476562 175.675781 139.484375 174.585938 138.460938 173.523438 C 138.332031 173.390625 138.203125 173.257812 138.074219 173.125 C 137.945312 172.992188 137.816406 172.863281 137.6875 172.730469 C 137.558594 172.601562 137.425781 172.46875 137.296875 172.339844 L 137.101562 172.144531 L 136.898438 171.945312 C 136.761719 171.8125 136.625 171.679688 136.496094 171.546875 L 136.300781 171.347656 L 136.105469 171.15625 C 135.847656 170.898438 135.585938 170.648438 135.320312 170.398438 C 134.789062 169.902344 134.242188 169.425781 133.679688 168.96875 C 133.113281 168.515625 132.535156 168.082031 131.941406 167.675781 C 130.75 166.863281 129.492188 166.15625 128.175781 165.613281 C 126.859375 165.070312 125.480469 164.6875 124.085938 164.546875 C 123.386719 164.472656 122.6875 164.460938 121.992188 164.515625 C 121.648438 164.546875 121.300781 164.589844 120.960938 164.65625 C 120.625 164.71875 120.289062 164.800781 119.960938 164.902344 C 119.304688 165.105469 118.675781 165.390625 118.109375 165.753906 C 117.542969 166.117188 117.039062 166.570312 116.660156 167.089844 C 116.28125 167.609375 116.035156 168.203125 116.007812 168.792969 C 115.992188 169.089844 116.03125 169.382812 116.125 169.660156 C 116.214844 169.9375 116.363281 170.203125 116.554688 170.445312 C 116.742188 170.691406 116.980469 170.910156 117.242188 171.105469 C 117.375 171.203125 117.511719 171.292969 117.65625 171.382812 C 117.800781 171.46875 117.945312 171.542969 118.113281 171.625 C 118.753906 171.941406 119.417969 172.210938 120.097656 172.417969 C 121.460938 172.832031 122.898438 172.988281 124.3125 172.839844 C 125.019531 172.765625 125.71875 172.621094 126.398438 172.40625 C 127.082031 172.195312 127.746094 171.914062 128.382812 171.582031 C 129.660156 170.914062 130.828125 170.027344 131.878906 169.019531 C 132.933594 168.011719 133.867188 166.875 134.707031 165.667969 C 135.542969 164.457031 136.28125 163.175781 136.933594 161.851562 C 138.234375 159.199219 139.199219 156.378906 139.90625 153.5 C 139.996094 153.140625 140.078125 152.777344 140.160156 152.417969 C 140.238281 152.054688 140.316406 151.691406 140.386719 151.328125 C 140.53125 150.597656 140.65625 149.867188 140.769531 149.132812 C 140.886719 148.402344 140.984375 147.664062 141.066406 146.925781 C 141.109375 146.558594 141.148438 146.1875 141.183594 145.820312 C 141.199219 145.636719 141.21875 145.445312 141.234375 145.265625 L 141.257812 144.996094 C 141.261719 144.902344 141.261719 144.808594 141.261719 144.71875 L 141.28125 143.605469 C 141.289062 143.238281 141.289062 142.863281 141.289062 142.492188 L 141.292969 141.933594 L 141.289062 141.375 L 141.28125 140.253906 C 141.257812 138.765625 141.210938 137.277344 141.136719 135.789062 C 141.0625 134.300781 140.957031 132.8125 140.832031 131.328125 C 140.699219 129.847656 140.542969 128.363281 140.359375 126.886719 C 139.992188 123.933594 139.511719 120.992188 138.933594 118.074219 C 138.355469 115.160156 137.675781 112.265625 136.898438 109.398438 C 136.804688 109.039062 136.703125 108.683594 136.601562 108.328125 C 136.507812 107.96875 136.402344 107.613281 136.300781 107.253906 C 136.199219 106.898438 136.09375 106.542969 135.988281 106.1875 L 135.828125 105.65625 L 135.664062 105.125 C 135.230469 103.707031 134.769531 102.296875 134.285156 100.898438 C 133.320312 98.097656 132.25 95.335938 131.066406 92.625 C 130.476562 91.273438 129.851562 89.933594 129.1875 88.613281 C 128.527344 87.296875 127.835938 85.992188 127.097656 84.722656 L 126.820312 84.246094 L 126.535156 83.769531 L 125.957031 82.832031 C 125.5625 82.214844 125.164062 81.597656 124.746094 80.996094 C 124.328125 80.394531 123.902344 79.800781 123.457031 79.222656 L 123.121094 78.792969 C 123.007812 78.648438 122.890625 78.507812 122.777344 78.367188 C 122.664062 78.226562 122.546875 78.085938 122.429688 77.949219 L 122.253906 77.742188 L 122.082031 77.542969 L 121.910156 77.347656 C 121.882812 77.3125 121.851562 77.285156 121.824219 77.253906 L 121.734375 77.167969 C 121.703125 77.140625 121.675781 77.109375 121.644531 77.082031 L 121.546875 76.988281 C 121.484375 76.925781 121.417969 76.867188 121.355469 76.808594 C 121.09375 76.566406 120.828125 76.335938 120.550781 76.117188 C 120 75.675781 119.421875 75.28125 118.816406 74.9375 C 117.605469 74.246094 116.277344 73.78125 114.898438 73.597656 C 114.210938 73.5 113.511719 73.46875 112.8125 73.503906 C 112.109375 73.53125 111.410156 73.625 110.714844 73.769531 C 109.320312 74.054688 107.957031 74.539062 106.640625 75.148438 C 105.320312 75.753906 104.050781 76.488281 102.820312 77.289062 C 101.59375 78.09375 100.40625 78.972656 99.25 79.898438 C 96.941406 81.746094 94.769531 83.78125 92.644531 85.871094 Z M 92.160156 85.410156 " fill-opacity="1" fill-rule="nonzero"/></g><g clip-path="url(#4ae2774d04)"><path fill="#e89ca3" d="M 35.90625 204.714844 C 35.746094 204.820312 35.589844 204.929688 35.445312 205.046875 C 35.367188 205.105469 35.296875 205.167969 35.226562 205.226562 C 35.15625 205.289062 35.085938 205.351562 35.019531 205.417969 C 34.886719 205.546875 34.765625 205.6875 34.652344 205.832031 C 34.539062 205.976562 34.4375 206.128906 34.351562 206.289062 C 33.996094 206.917969 33.882812 207.65625 33.976562 208.386719 C 34.070312 209.121094 34.34375 209.84375 34.691406 210.527344 C 34.871094 210.867188 35.066406 211.203125 35.277344 211.527344 C 35.488281 211.855469 35.714844 212.171875 35.953125 212.484375 C 36.425781 213.109375 36.941406 213.707031 37.476562 214.28125 C 38.015625 214.859375 38.578125 215.417969 39.15625 215.960938 C 40.3125 217.042969 41.53125 218.066406 42.777344 219.050781 C 44.027344 220.035156 45.3125 220.976562 46.621094 221.886719 C 47.929688 222.796875 49.257812 223.675781 50.609375 224.507812 C 50.78125 224.613281 50.949219 224.714844 51.117188 224.816406 L 51.238281 224.886719 L 51.265625 224.902344 L 51.296875 224.921875 L 51.363281 224.953125 L 51.621094 225.09375 C 51.972656 225.28125 52.332031 225.472656 52.683594 225.664062 C 53.390625 226.050781 54.09375 226.445312 54.789062 226.851562 C 56.1875 227.65625 57.5625 228.507812 58.90625 229.410156 C 61.589844 231.210938 64.152344 233.230469 66.46875 235.523438 C 68.78125 237.8125 70.84375 240.382812 72.503906 243.210938 C 73.332031 244.621094 74.0625 246.09375 74.683594 247.609375 C 74.839844 247.988281 74.988281 248.371094 75.128906 248.757812 L 75.234375 249.046875 L 75.285156 249.191406 L 75.3125 249.261719 L 75.339844 249.34375 L 75.390625 249.503906 C 75.40625 249.558594 75.421875 249.613281 75.4375 249.667969 C 75.46875 249.773438 75.496094 249.886719 75.523438 250 C 75.570312 250.222656 75.613281 250.453125 75.632812 250.6875 C 75.648438 250.804688 75.648438 250.925781 75.65625 251.046875 C 75.65625 251.164062 75.65625 251.285156 75.648438 251.40625 C 75.625 251.890625 75.515625 252.386719 75.316406 252.847656 C 75.117188 253.308594 74.824219 253.726562 74.480469 254.078125 C 74.136719 254.429688 73.746094 254.710938 73.332031 254.9375 C 72.921875 255.164062 72.492188 255.332031 72.054688 255.453125 C 71.617188 255.578125 71.171875 255.660156 70.730469 255.703125 C 69.839844 255.785156 68.949219 255.730469 68.085938 255.539062 C 67.222656 255.351562 66.378906 255.035156 65.605469 254.574219 L 65.574219 254.554688 L 65.542969 254.53125 C 64.863281 254.035156 64.273438 253.457031 63.742188 252.847656 C 63.214844 252.234375 62.746094 251.585938 62.320312 250.917969 C 61.472656 249.582031 60.78125 248.171875 60.191406 246.730469 C 59.601562 245.289062 59.113281 243.8125 58.71875 242.304688 C 58.523438 241.554688 58.351562 240.792969 58.207031 240.023438 C 58.136719 239.636719 58.074219 239.25 58.019531 238.859375 C 57.992188 238.664062 57.96875 238.460938 57.949219 238.273438 L 57.882812 237.707031 C 57.710938 236.179688 57.609375 234.652344 57.46875 233.160156 C 57.328125 231.667969 57.148438 230.207031 56.804688 228.796875 C 56.636719 228.09375 56.421875 227.402344 56.171875 226.730469 C 56.109375 226.558594 56.042969 226.394531 55.976562 226.226562 C 55.90625 226.0625 55.839844 225.894531 55.761719 225.730469 C 55.6875 225.566406 55.617188 225.402344 55.535156 225.238281 L 55.417969 224.996094 L 55.296875 224.765625 C 55.21875 224.605469 55.128906 224.464844 55.042969 224.316406 C 55 224.246094 54.949219 224.167969 54.902344 224.09375 C 54.851562 224.019531 54.804688 223.945312 54.757812 223.871094 C 54.652344 223.726562 54.558594 223.578125 54.449219 223.433594 L 54.292969 223.214844 L 54.128906 223 C 53.6875 222.429688 53.207031 221.882812 52.703125 221.347656 C 51.695312 220.273438 50.59375 219.257812 49.484375 218.222656 C 48.371094 217.1875 47.242188 216.140625 46.183594 214.984375 C 46.050781 214.835938 45.917969 214.691406 45.789062 214.542969 C 45.660156 214.390625 45.527344 214.242188 45.402344 214.089844 L 45.214844 213.859375 L 45.035156 213.628906 L 44.679688 213.171875 C 44.558594 213.023438 44.445312 212.867188 44.328125 212.710938 L 43.980469 212.246094 C 43.863281 212.09375 43.753906 211.933594 43.640625 211.777344 L 43.304688 211.304688 C 42.417969 210.039062 41.589844 208.730469 40.824219 207.390625 C 39.289062 204.710938 37.992188 201.898438 36.917969 199.011719 C 35.84375 196.121094 34.992188 193.15625 34.339844 190.152344 C 33.683594 187.152344 33.21875 184.113281 32.914062 181.0625 C 32.613281 178.011719 32.46875 174.949219 32.460938 171.886719 C 32.449219 165.769531 32.960938 159.664062 33.851562 153.628906 C 34.296875 150.613281 34.839844 147.613281 35.46875 144.628906 C 36.09375 141.644531 36.808594 138.683594 37.59375 135.742188 C 39.171875 129.859375 41.046875 124.058594 43.210938 118.371094 C 43.75 116.949219 44.3125 115.535156 44.890625 114.128906 C 45.46875 112.71875 46.070312 111.320312 46.6875 109.929688 C 47.929688 107.152344 49.25 104.40625 50.691406 101.722656 C 51.414062 100.378906 52.164062 99.054688 52.960938 97.753906 C 53.363281 97.101562 53.773438 96.457031 54.199219 95.824219 C 54.628906 95.1875 55.070312 94.5625 55.542969 93.953125 C 55.773438 93.648438 56.023438 93.347656 56.261719 93.058594 C 56.507812 92.765625 56.75 92.472656 56.996094 92.183594 C 57.488281 91.601562 57.984375 91.023438 58.488281 90.453125 C 59.496094 89.3125 60.535156 88.195312 61.617188 87.121094 C 62.699219 86.042969 63.820312 85.007812 65.003906 84.035156 C 66.183594 83.0625 67.421875 82.15625 68.738281 81.355469 C 70.050781 80.5625 71.441406 79.875 72.910156 79.386719 C 74.375 78.898438 75.925781 78.617188 77.484375 78.640625 C 78.261719 78.65625 79.042969 78.742188 79.804688 78.90625 C 80.566406 79.074219 81.308594 79.3125 82.023438 79.617188 C 82.738281 79.921875 83.425781 80.292969 84.078125 80.710938 C 84.402344 80.917969 84.722656 81.140625 85.03125 81.371094 C 85.1875 81.488281 85.339844 81.605469 85.488281 81.726562 C 85.5625 81.785156 85.640625 81.847656 85.714844 81.910156 C 85.792969 81.976562 85.871094 82.035156 85.941406 82.109375 C 86.230469 82.382812 86.492188 82.664062 86.75 82.953125 C 87.003906 83.246094 87.25 83.542969 87.484375 83.84375 C 87.960938 84.449219 88.40625 85.074219 88.832031 85.707031 C 89.6875 86.972656 90.476562 88.28125 91.226562 89.605469 C 92.722656 92.257812 94.082031 94.984375 95.355469 97.742188 C 96.632812 100.503906 97.820312 103.304688 98.949219 106.125 C 101.191406 111.777344 103.179688 117.53125 104.871094 123.378906 C 105.714844 126.300781 106.484375 129.25 107.15625 132.222656 C 107.824219 135.195312 108.394531 138.191406 108.832031 141.214844 C 109.261719 144.242188 109.558594 147.292969 109.625 150.363281 C 109.65625 151.902344 109.628906 153.441406 109.519531 154.984375 C 109.410156 156.523438 109.214844 158.066406 108.898438 159.597656 C 108.578125 161.125 108.136719 162.640625 107.503906 164.101562 C 107.183594 164.828125 106.820312 165.542969 106.394531 166.226562 C 106.1875 166.566406 105.949219 166.90625 105.726562 167.21875 C 105.5 167.53125 105.273438 167.84375 105.042969 168.148438 C 104.125 169.375 103.1875 170.574219 102.238281 171.765625 C 101.289062 172.957031 100.328125 174.136719 99.359375 175.308594 C 95.46875 179.992188 91.4375 184.558594 87.199219 188.945312 C 85.078125 191.136719 82.902344 193.28125 80.636719 195.339844 C 79.503906 196.371094 78.347656 197.378906 77.160156 198.355469 C 75.972656 199.328125 74.75 200.273438 73.472656 201.15625 C 72.191406 202.039062 70.863281 202.871094 69.421875 203.566406 C 68.699219 203.910156 67.949219 204.222656 67.152344 204.460938 C 66.753906 204.578125 66.339844 204.675781 65.914062 204.746094 C 65.488281 204.816406 65.042969 204.859375 64.589844 204.847656 C 64.132812 204.839844 63.660156 204.78125 63.195312 204.652344 C 62.730469 204.523438 62.269531 204.316406 61.859375 204.042969 C 61.652344 203.90625 61.460938 203.753906 61.28125 203.589844 L 61.148438 203.464844 C 61.105469 203.421875 61.0625 203.378906 61.023438 203.335938 C 60.984375 203.292969 60.941406 203.246094 60.902344 203.203125 L 60.792969 203.078125 C 60.503906 202.738281 60.242188 202.355469 60.023438 201.9375 C 59.914062 201.722656 59.816406 201.507812 59.738281 201.277344 C 59.660156 201.050781 59.589844 200.816406 59.546875 200.574219 C 59.5 200.332031 59.472656 200.089844 59.460938 199.84375 C 59.453125 199.601562 59.460938 199.359375 59.484375 199.121094 C 59.511719 198.882812 59.550781 198.648438 59.605469 198.421875 C 59.664062 198.195312 59.726562 197.972656 59.804688 197.757812 C 59.960938 197.332031 60.15625 196.929688 60.371094 196.554688 C 60.808594 195.804688 61.328125 195.148438 61.882812 194.550781 C 62.433594 193.949219 63.023438 193.402344 63.632812 192.886719 C 64.847656 191.863281 66.132812 190.96875 67.449219 190.140625 C 68.765625 189.316406 70.117188 188.558594 71.484375 187.851562 C 72.855469 187.144531 74.246094 186.480469 75.648438 185.859375 C 77.054688 185.234375 78.476562 184.648438 79.90625 184.097656 C 81.339844 183.546875 82.785156 183.03125 84.25 182.554688 C 85.710938 182.078125 87.1875 181.636719 88.6875 181.257812 C 90.191406 180.878906 91.703125 180.5625 93.226562 180.296875 C 94.75 180.035156 96.28125 179.828125 97.824219 179.6875 C 99.367188 179.546875 100.917969 179.472656 102.472656 179.476562 C 104.03125 179.480469 105.589844 179.566406 107.148438 179.757812 C 108.707031 179.949219 110.257812 180.253906 111.78125 180.699219 C 112.542969 180.921875 113.296875 181.183594 114.039062 181.484375 C 114.777344 181.789062 115.503906 182.132812 116.210938 182.523438 C 116.914062 182.914062 117.59375 183.355469 118.246094 183.835938 L 118.488281 184.023438 C 118.570312 184.085938 118.648438 184.148438 118.726562 184.207031 C 118.878906 184.332031 119.03125 184.453125 119.179688 184.582031 C 119.484375 184.832031 119.78125 185.089844 120.074219 185.347656 C 122.417969 187.441406 124.441406 189.878906 126.117188 192.515625 C 127.792969 195.152344 129.121094 197.992188 130.152344 200.917969 C 131.183594 203.847656 131.914062 206.867188 132.402344 209.917969 C 132.890625 212.964844 133.125 216.046875 133.15625 219.125 C 133.179688 222.203125 132.996094 225.28125 132.609375 228.328125 C 132.21875 231.378906 131.632812 234.402344 130.824219 237.375 C 130.421875 238.855469 129.960938 240.328125 129.4375 241.777344 C 128.917969 243.226562 128.332031 244.65625 127.675781 246.054688 C 127.015625 247.453125 126.28125 248.816406 125.453125 250.132812 C 124.621094 251.445312 123.691406 252.707031 122.632812 253.867188 C 122.101562 254.445312 121.535156 254.996094 120.929688 255.507812 C 120.320312 256.019531 119.671875 256.488281 118.980469 256.898438 C 118.289062 257.304688 117.546875 257.648438 116.769531 257.894531 C 116.382812 258.019531 115.984375 258.117188 115.582031 258.191406 C 115.53125 258.203125 115.480469 258.207031 115.433594 258.214844 L 115 258.285156 C 114.808594 258.320312 114.617188 258.339844 114.421875 258.367188 C 112.878906 258.566406 111.316406 258.621094 109.765625 258.546875 C 108.214844 258.46875 106.675781 258.265625 105.160156 257.953125 C 103.648438 257.644531 102.160156 257.226562 100.703125 256.730469 C 99.25 256.230469 97.824219 255.648438 96.429688 255.007812 C 93.648438 253.71875 90.992188 252.183594 88.445312 250.5 C 85.898438 248.8125 83.460938 246.972656 81.113281 245.035156 C 76.417969 241.152344 72.066406 236.882812 67.945312 232.421875 C 65.882812 230.1875 63.882812 227.902344 61.925781 225.582031 C 60.945312 224.421875 59.976562 223.253906 59.011719 222.085938 L 57.5625 220.332031 C 57.320312 220.042969 57.074219 219.753906 56.828125 219.464844 C 56.578125 219.183594 56.332031 218.894531 56.0625 218.640625 L 56.207031 218.484375 C 56.492188 218.746094 56.746094 219.027344 57.003906 219.308594 C 57.261719 219.59375 57.511719 219.878906 57.757812 220.164062 C 58.257812 220.734375 58.75 221.3125 59.246094 221.886719 C 60.234375 223.039062 61.222656 224.1875 62.222656 225.324219 C 64.222656 227.601562 66.261719 229.847656 68.355469 232.035156 C 72.539062 236.414062 76.9375 240.589844 81.652344 244.371094 C 84.011719 246.257812 86.449219 248.042969 88.984375 249.671875 C 91.519531 251.300781 94.152344 252.773438 96.890625 253.996094 C 98.261719 254.605469 99.65625 255.152344 101.078125 255.621094 C 102.496094 256.082031 103.941406 256.46875 105.402344 256.75 C 106.863281 257.03125 108.339844 257.207031 109.820312 257.265625 C 111.300781 257.320312 112.785156 257.25 114.246094 257.042969 C 114.425781 257.015625 114.609375 256.992188 114.792969 256.960938 L 115.0625 256.914062 L 115.199219 256.890625 C 115.246094 256.882812 115.292969 256.875 115.332031 256.867188 C 115.675781 256.796875 116.011719 256.707031 116.34375 256.59375 C 117.007812 256.371094 117.648438 256.0625 118.257812 255.691406 C 118.867188 255.316406 119.441406 254.882812 119.988281 254.410156 C 120.535156 253.933594 121.046875 253.417969 121.535156 252.871094 C 122.503906 251.78125 123.363281 250.574219 124.136719 249.3125 C 124.90625 248.050781 125.589844 246.730469 126.207031 245.375 C 127.4375 242.664062 128.394531 239.820312 129.140625 236.925781 C 129.890625 234.03125 130.429688 231.078125 130.769531 228.105469 C 131.113281 225.132812 131.261719 222.140625 131.207031 219.152344 C 131.148438 216.164062 130.886719 213.183594 130.394531 210.246094 C 129.898438 207.308594 129.167969 204.414062 128.164062 201.628906 C 127.15625 198.84375 125.878906 196.160156 124.28125 193.6875 C 122.691406 191.214844 120.785156 188.953125 118.59375 187.011719 C 118.320312 186.769531 118.042969 186.535156 117.757812 186.300781 C 117.617188 186.183594 117.476562 186.070312 117.332031 185.957031 C 117.261719 185.898438 117.191406 185.84375 117.121094 185.792969 L 116.910156 185.628906 C 116.34375 185.210938 115.746094 184.828125 115.125 184.484375 C 114.5 184.144531 113.855469 183.839844 113.191406 183.566406 C 112.527344 183.300781 111.84375 183.066406 111.152344 182.863281 C 109.761719 182.460938 108.328125 182.179688 106.875 182.003906 C 105.417969 181.824219 103.945312 181.75 102.46875 181.746094 C 99.515625 181.746094 96.546875 182.039062 93.613281 182.546875 C 92.148438 182.796875 90.6875 183.109375 89.25 183.46875 C 87.8125 183.835938 86.378906 184.261719 84.957031 184.722656 C 82.113281 185.652344 79.308594 186.726562 76.570312 187.933594 C 75.199219 188.539062 73.847656 189.175781 72.519531 189.859375 C 71.195312 190.539062 69.890625 191.261719 68.636719 192.039062 C 67.382812 192.820312 66.167969 193.660156 65.058594 194.585938 C 64.503906 195.046875 63.980469 195.535156 63.503906 196.046875 C 63.027344 196.558594 62.601562 197.097656 62.273438 197.660156 C 61.945312 198.21875 61.71875 198.800781 61.65625 199.351562 C 61.59375 199.90625 61.695312 200.433594 61.953125 200.945312 C 62.085938 201.199219 62.25 201.449219 62.449219 201.6875 L 62.527344 201.773438 C 62.550781 201.804688 62.574219 201.828125 62.597656 201.855469 C 62.621094 201.878906 62.644531 201.902344 62.667969 201.929688 L 62.742188 202 C 62.839844 202.09375 62.945312 202.175781 63.054688 202.25 C 63.277344 202.394531 63.515625 202.507812 63.78125 202.582031 C 64.042969 202.660156 64.332031 202.699219 64.632812 202.707031 C 65.238281 202.722656 65.894531 202.605469 66.550781 202.414062 C 67.207031 202.222656 67.867188 201.957031 68.511719 201.652344 C 69.808594 201.039062 71.066406 200.265625 72.289062 199.433594 C 73.511719 198.597656 74.699219 197.695312 75.863281 196.753906 C 77.023438 195.816406 78.160156 194.835938 79.277344 193.832031 C 81.515625 191.824219 83.675781 189.71875 85.789062 187.566406 C 87.898438 185.410156 89.960938 183.203125 91.984375 180.957031 C 94.007812 178.714844 95.992188 176.433594 97.9375 174.121094 C 98.914062 172.964844 99.878906 171.800781 100.828125 170.628906 C 101.78125 169.457031 102.722656 168.273438 103.636719 167.082031 C 103.863281 166.785156 104.089844 166.484375 104.308594 166.183594 C 104.53125 165.882812 104.730469 165.601562 104.921875 165.296875 C 105.304688 164.699219 105.640625 164.0625 105.9375 163.402344 C 106.527344 162.085938 106.960938 160.683594 107.28125 159.246094 C 107.597656 157.808594 107.804688 156.335938 107.933594 154.855469 C 108.0625 153.375 108.113281 151.878906 108.105469 150.382812 C 108.085938 147.386719 107.847656 144.386719 107.46875 141.398438 C 107.089844 138.410156 106.574219 135.433594 105.960938 132.476562 C 105.347656 129.519531 104.632812 126.582031 103.84375 123.664062 C 103.046875 120.746094 102.179688 117.847656 101.234375 114.972656 C 100.761719 113.535156 100.273438 112.105469 99.765625 110.679688 C 99.257812 109.253906 98.730469 107.832031 98.1875 106.421875 C 97.101562 103.597656 95.9375 100.800781 94.695312 98.042969 C 94.070312 96.664062 93.425781 95.296875 92.75 93.945312 C 92.078125 92.589844 91.378906 91.25 90.640625 89.929688 C 89.902344 88.613281 89.128906 87.316406 88.292969 86.066406 C 87.875 85.441406 87.4375 84.828125 86.976562 84.238281 C 86.75 83.945312 86.511719 83.65625 86.265625 83.375 C 86.023438 83.097656 85.765625 82.824219 85.503906 82.574219 C 85.445312 82.511719 85.371094 82.453125 85.304688 82.398438 C 85.234375 82.339844 85.164062 82.28125 85.089844 82.222656 C 84.945312 82.105469 84.796875 81.992188 84.648438 81.878906 C 84.351562 81.65625 84.046875 81.445312 83.734375 81.246094 C 83.109375 80.84375 82.453125 80.492188 81.773438 80.203125 C 81.09375 79.910156 80.390625 79.683594 79.667969 79.527344 C 78.949219 79.371094 78.210938 79.289062 77.472656 79.277344 C 75.996094 79.253906 74.519531 79.523438 73.113281 79.996094 C 71.703125 80.46875 70.355469 81.136719 69.082031 81.917969 C 67.800781 82.699219 66.59375 83.597656 65.4375 84.558594 C 64.28125 85.519531 63.179688 86.546875 62.117188 87.617188 C 61.054688 88.6875 60.035156 89.800781 59.046875 90.941406 C 58.550781 91.511719 58.0625 92.085938 57.578125 92.667969 C 57.339844 92.960938 57.097656 93.253906 56.859375 93.546875 C 56.617188 93.839844 56.386719 94.128906 56.164062 94.425781 C 55.710938 95.023438 55.28125 95.640625 54.867188 96.265625 C 54.453125 96.894531 54.054688 97.53125 53.667969 98.179688 C 52.890625 99.46875 52.164062 100.792969 51.464844 102.128906 C 50.066406 104.804688 48.785156 107.546875 47.589844 110.324219 C 46.394531 113.101562 45.289062 115.917969 44.25 118.757812 C 42.183594 124.441406 40.40625 130.226562 38.925781 136.085938 C 38.1875 139.015625 37.523438 141.964844 36.945312 144.925781 C 36.363281 147.890625 35.867188 150.867188 35.460938 153.855469 C 35.054688 156.84375 34.742188 159.847656 34.539062 162.851562 C 34.332031 165.855469 34.238281 168.867188 34.269531 171.875 C 34.300781 174.882812 34.457031 177.886719 34.769531 180.871094 C 35.082031 183.855469 35.546875 186.820312 36.191406 189.742188 C 36.835938 192.667969 37.664062 195.546875 38.707031 198.34375 C 39.746094 201.140625 41 203.855469 42.476562 206.441406 C 43.214844 207.734375 44.007812 208.996094 44.863281 210.214844 L 45.183594 210.667969 C 45.292969 210.820312 45.398438 210.972656 45.511719 211.121094 L 45.84375 211.570312 C 45.957031 211.71875 46.066406 211.867188 46.183594 212.011719 L 46.523438 212.453125 L 46.695312 212.671875 L 46.867188 212.882812 C 46.980469 213.023438 47.101562 213.160156 47.214844 213.296875 C 47.335938 213.433594 47.457031 213.570312 47.578125 213.707031 C 48.566406 214.789062 49.660156 215.8125 50.765625 216.84375 C 51.871094 217.878906 53 218.925781 54.066406 220.066406 C 54.597656 220.636719 55.117188 221.230469 55.601562 221.863281 L 55.785156 222.101562 L 55.960938 222.34375 C 56.078125 222.503906 56.1875 222.671875 56.304688 222.839844 C 56.359375 222.921875 56.414062 223.007812 56.46875 223.09375 C 56.523438 223.179688 56.578125 223.257812 56.628906 223.351562 L 56.789062 223.621094 C 56.816406 223.667969 56.84375 223.710938 56.867188 223.757812 L 57.078125 224.167969 L 57.207031 224.4375 C 57.292969 224.613281 57.375 224.796875 57.457031 224.976562 C 57.539062 225.160156 57.613281 225.34375 57.691406 225.527344 C 57.761719 225.714844 57.835938 225.898438 57.90625 226.085938 C 58.179688 226.832031 58.410156 227.597656 58.589844 228.367188 C 58.960938 229.910156 59.140625 231.46875 59.28125 232.996094 C 59.414062 234.523438 59.511719 236.027344 59.671875 237.511719 L 59.734375 238.078125 C 59.753906 238.265625 59.773438 238.441406 59.796875 238.621094 C 59.84375 238.984375 59.898438 239.34375 59.964844 239.703125 C 60.09375 240.425781 60.25 241.148438 60.433594 241.863281 C 60.800781 243.292969 61.257812 244.707031 61.808594 246.074219 C 62.355469 247.441406 63 248.773438 63.769531 250 C 64.15625 250.613281 64.574219 251.203125 65.03125 251.742188 C 65.488281 252.28125 65.992188 252.773438 66.535156 253.175781 L 66.46875 253.132812 C 67.671875 253.859375 69.160156 254.1875 70.574219 254.066406 C 71.28125 254.003906 71.972656 253.824219 72.558594 253.511719 C 72.847656 253.351562 73.113281 253.164062 73.332031 252.945312 C 73.550781 252.722656 73.726562 252.476562 73.847656 252.203125 C 74.097656 251.65625 74.121094 251.003906 73.980469 250.335938 C 73.960938 250.253906 73.941406 250.171875 73.917969 250.085938 C 73.90625 250.046875 73.894531 250.003906 73.882812 249.960938 L 73.824219 249.773438 L 73.800781 249.707031 L 73.75 249.566406 L 73.652344 249.289062 C 73.523438 248.921875 73.382812 248.554688 73.238281 248.191406 C 72.660156 246.738281 71.976562 245.328125 71.195312 243.96875 C 69.640625 241.246094 67.6875 238.753906 65.476562 236.511719 C 63.261719 234.265625 60.792969 232.265625 58.1875 230.464844 C 56.882812 229.5625 55.542969 228.707031 54.175781 227.886719 C 53.496094 227.480469 52.804688 227.078125 52.113281 226.6875 C 51.765625 226.492188 51.417969 226.296875 51.070312 226.101562 L 50.800781 225.953125 L 50.730469 225.917969 L 50.699219 225.898438 L 50.523438 225.792969 C 50.351562 225.6875 50.179688 225.578125 50.007812 225.46875 C 48.644531 224.605469 47.3125 223.699219 46.003906 222.757812 C 44.691406 221.820312 43.40625 220.847656 42.152344 219.832031 C 40.902344 218.8125 39.679688 217.753906 38.515625 216.628906 C 37.933594 216.066406 37.367188 215.484375 36.824219 214.878906 C 36.28125 214.277344 35.757812 213.648438 35.273438 212.988281 C 35.03125 212.660156 34.796875 212.320312 34.582031 211.96875 C 34.363281 211.621094 34.160156 211.257812 33.972656 210.886719 C 33.789062 210.511719 33.625 210.125 33.496094 209.722656 C 33.429688 209.523438 33.371094 209.316406 33.328125 209.109375 C 33.28125 208.902344 33.242188 208.6875 33.222656 208.472656 C 33.175781 208.042969 33.183594 207.601562 33.269531 207.167969 C 33.308594 206.953125 33.367188 206.738281 33.445312 206.53125 C 33.523438 206.324219 33.621094 206.125 33.730469 205.933594 C 33.839844 205.742188 33.964844 205.5625 34.101562 205.394531 C 34.238281 205.226562 34.382812 205.066406 34.539062 204.921875 C 34.617188 204.847656 34.699219 204.777344 34.777344 204.707031 C 34.863281 204.640625 34.941406 204.570312 35.027344 204.511719 C 35.195312 204.378906 35.371094 204.265625 35.546875 204.152344 Z M 35.90625 204.714844 " fill-opacity="1" fill-rule="nonzero"/></g><g clip-path="url(#db88392773)"><path fill="#e89ca3" d="M 0.996094 158.652344 C 1.585938 158.460938 2.226562 158.394531 2.859375 158.457031 C 3.496094 158.519531 4.117188 158.699219 4.703125 158.957031 C 4.996094 159.085938 5.28125 159.234375 5.558594 159.394531 C 5.835938 159.554688 6.101562 159.730469 6.363281 159.910156 C 6.882812 160.28125 7.375 160.6875 7.839844 161.117188 C 8.773438 161.976562 9.613281 162.921875 10.402344 163.898438 C 10.796875 164.386719 11.175781 164.886719 11.542969 165.390625 C 11.914062 165.898438 12.277344 166.40625 12.625 166.925781 C 12.972656 167.445312 13.316406 167.964844 13.652344 168.488281 C 13.988281 169.015625 14.316406 169.542969 14.640625 170.074219 C 15.289062 171.136719 15.910156 172.210938 16.523438 173.289062 C 16.828125 173.828125 17.128906 174.371094 17.425781 174.914062 L 18.316406 176.542969 C 18.90625 177.632812 19.480469 178.722656 20.058594 179.816406 L 21.777344 183.089844 C 22.34375 184.183594 22.917969 185.273438 23.492188 186.359375 C 24.0625 187.449219 24.644531 188.527344 25.226562 189.605469 C 25.519531 190.144531 25.816406 190.679688 26.113281 191.214844 C 26.410156 191.753906 26.707031 192.285156 27.011719 192.816406 C 28.226562 194.941406 29.496094 197.027344 30.886719 199.023438 C 32.28125 201.015625 33.800781 202.925781 35.617188 204.546875 L 35.292969 204.980469 C 34.230469 204.300781 33.257812 203.492188 32.347656 202.625 C 31.433594 201.757812 30.589844 200.828125 29.785156 199.867188 C 28.183594 197.9375 26.757812 195.878906 25.417969 193.78125 C 25.085938 193.253906 24.757812 192.726562 24.433594 192.195312 C 24.109375 191.664062 23.796875 191.128906 23.480469 190.589844 C 22.851562 189.519531 22.246094 188.4375 21.648438 187.351562 C 21.050781 186.269531 20.46875 185.175781 19.890625 184.082031 C 19.316406 182.988281 18.746094 181.890625 18.179688 180.796875 L 16.492188 177.503906 L 15.652344 175.863281 L 14.804688 174.222656 C 14.242188 173.132812 13.664062 172.050781 13.085938 170.972656 C 12.792969 170.433594 12.496094 169.898438 12.195312 169.367188 C 11.898438 168.832031 11.597656 168.300781 11.285156 167.777344 C 10.972656 167.25 10.664062 166.726562 10.339844 166.210938 C 10.019531 165.695312 9.6875 165.1875 9.347656 164.683594 C 9.007812 164.179688 8.652344 163.6875 8.292969 163.203125 C 7.929688 162.71875 7.546875 162.253906 7.148438 161.800781 C 6.753906 161.347656 6.328125 160.921875 5.886719 160.519531 C 5.664062 160.320312 5.433594 160.128906 5.195312 159.949219 C 4.957031 159.769531 4.710938 159.601562 4.457031 159.445312 C 4.199219 159.292969 3.933594 159.15625 3.660156 159.039062 C 3.386719 158.921875 3.105469 158.820312 2.8125 158.75 C 2.226562 158.601562 1.609375 158.570312 0.996094 158.652344 Z M 0.996094 158.652344 " fill-opacity="1" fill-rule="nonzero"/></g><g clip-path="url(#e29de0c4ef)"><path fill="#e89ca3" d="M -11.25 170.46875 C -10.734375 170.128906 -10.136719 169.890625 -9.511719 169.78125 C -8.882812 169.667969 -8.234375 169.675781 -7.597656 169.765625 C -7.28125 169.8125 -6.96875 169.875 -6.660156 169.953125 C -6.351562 170.035156 -6.042969 170.132812 -5.742188 170.238281 C -5.144531 170.453125 -4.5625 170.710938 -3.996094 171 C -2.867188 171.574219 -1.804688 172.257812 -0.78125 172.988281 C -0.269531 173.351562 0.230469 173.730469 0.722656 174.117188 C 1.210938 174.503906 1.699219 174.898438 2.175781 175.304688 C 2.652344 175.707031 3.121094 176.117188 3.585938 176.53125 C 4.050781 176.945312 4.507812 177.367188 4.964844 177.792969 C 5.875 178.636719 6.761719 179.507812 7.644531 180.378906 C 8.085938 180.816406 8.519531 181.257812 8.953125 181.699219 L 10.25 183.027344 C 11.109375 183.917969 11.960938 184.8125 12.8125 185.707031 L 15.347656 188.398438 C 16.191406 189.296875 17.035156 190.191406 17.882812 191.082031 C 18.726562 191.976562 19.578125 192.855469 20.429688 193.738281 C 20.859375 194.179688 21.289062 194.613281 21.71875 195.050781 C 22.148438 195.484375 22.582031 195.917969 23.019531 196.347656 C 24.761719 198.0625 26.546875 199.730469 28.425781 201.273438 C 30.304688 202.8125 32.285156 204.238281 34.472656 205.304688 L 34.253906 205.859375 C 33.050781 205.488281 31.894531 204.96875 30.78125 204.378906 C 29.671875 203.789062 28.605469 203.117188 27.574219 202.40625 C 25.511719 200.976562 23.582031 199.378906 21.730469 197.714844 C 21.269531 197.300781 20.808594 196.878906 20.355469 196.453125 C 19.902344 196.027344 19.453125 195.597656 19.007812 195.167969 C 18.113281 194.304688 17.238281 193.425781 16.367188 192.542969 C 15.5 191.65625 14.648438 190.757812 13.796875 189.863281 C 12.949219 188.964844 12.105469 188.0625 11.265625 187.15625 L 8.753906 184.441406 L 7.5 183.085938 L 6.246094 181.738281 C 5.40625 180.839844 4.5625 179.953125 3.710938 179.070312 C 3.285156 178.628906 2.855469 178.195312 2.421875 177.761719 C 1.992188 177.328125 1.554688 176.898438 1.117188 176.476562 C 0.675781 176.054688 0.234375 175.632812 -0.214844 175.222656 C -0.664062 174.8125 -1.121094 174.414062 -1.585938 174.019531 C -2.046875 173.625 -2.519531 173.246094 -3 172.878906 C -3.480469 172.511719 -3.972656 172.164062 -4.480469 171.835938 C -4.984375 171.507812 -5.503906 171.210938 -6.042969 170.941406 C -6.308594 170.8125 -6.582031 170.691406 -6.859375 170.582031 C -7.140625 170.472656 -7.421875 170.375 -7.707031 170.296875 C -7.996094 170.21875 -8.289062 170.160156 -8.585938 170.117188 C -8.878906 170.078125 -9.179688 170.058594 -9.480469 170.070312 C -10.078125 170.089844 -10.679688 170.222656 -11.25 170.46875 Z M -11.25 170.46875 " fill-opacity="1" fill-rule="nonzero"/></g></svg>